<svg width="26" height="26" viewBox="0 0 26 26" fill="none" xmlns="http://www.w3.org/2000/svg">
<g clip-path="url(#clip0_4965_1209)">
<path d="M13.7214 7.5V7.90741C13.7214 8.35742 14.0862 8.72222 14.5362 8.72222C15.4362 8.72222 16.1658 9.45183 16.1658 10.3519V10.4028C16.1658 11.3309 15.4134 12.0833 14.4852 12.0833H10.0547" stroke="#232629" stroke-width="0.5" stroke-linecap="round" stroke-linejoin="round"/>
<path d="M11.2778 7.5V7.80555C11.2778 9.15559 12.3722 10.25 13.7222 10.25H8.83333C7.82081 10.25 7 11.0708 7 12.0833C7 13.0959 7.82081 13.9167 8.83333 13.9167H11.2778" stroke="#232629" stroke-width="0.5" stroke-linecap="round" stroke-linejoin="round"/>
<path d="M13.722 12.083H16.1665C17.179 12.083 17.9998 12.9038 17.9998 13.9163C17.9998 14.9289 17.179 15.7497 16.1665 15.7497H11.8887C12.9012 15.7497 13.722 16.5705 13.722 17.583V18.4997" stroke="#232629" stroke-width="0.5" stroke-linecap="round" stroke-linejoin="round"/>
<path d="M11.2784 18.5003V18.1948C11.2784 17.8573 11.0048 17.5837 10.6673 17.5837C9.6548 17.5837 8.83398 16.7628 8.83398 15.7503C8.83398 14.7378 9.6548 13.917 10.6673 13.917H11.2784H15.2507" stroke="#232629" stroke-width="0.5" stroke-linecap="round" stroke-linejoin="round"/>
</g>
<defs>
<clipPath id="clip0_4965_1209">
<rect width="26" height="26" fill="white"/>
</clipPath>
</defs>
</svg>
