<svg width="26" height="26" viewBox="0 0 26 26" fill="none" xmlns="http://www.w3.org/2000/svg">
<g clip-path="url(#clip0_4965_1205)">
<path d="M13.9143 7.5C13.6248 9.23685 14.7827 10.5808 15.6511 10.3947C19.1248 9.65038 17.6774 17.3421 13.3354 17.3421C12.102 17.3421 11.0545 16.6223 10.4498 15.6285C10.2656 15.326 9.87175 15.1942 9.6523 15.4722C9.02234 16.2704 8.77597 17.661 9.07702 18.5" stroke="#232629" stroke-width="0.5" stroke-linecap="round" stroke-linejoin="round"/>
<path d="M7.35205 18.5C6.54445 16.7215 7.1762 14.3619 8.73703 13.0883C9.05612 12.8279 9.49999 12.846 9.87749 13.0106C11.3765 13.6644 12.5039 13.3314 13.3035 12.3168C13.5002 12.0673 13.4018 11.7139 13.1598 11.5081C12.0602 10.5728 11.6662 9.0364 12.1784 7.5" stroke="#232629" stroke-width="0.5" stroke-linecap="round" stroke-linejoin="round"/>
</g>
<defs>
<clipPath id="clip0_4965_1205">
<rect width="26" height="26" fill="white"/>
</clipPath>
</defs>
</svg>
