<svg preserveAspectRatio="none" width="100%" height="100%" overflow="visible" style="display: block;" viewBox="0 0 20 20" fill="none" xmlns="http://www.w3.org/2000/svg">
<g id="solar:menu-dots-bold">
<path id="Vector" d="M5.83333 10C5.83333 10.442 5.65774 10.8659 5.34518 11.1785C5.03262 11.4911 4.60869 11.6667 4.16667 11.6667C3.72464 11.6667 3.30072 11.4911 2.98816 11.1785C2.67559 10.8659 2.5 10.442 2.5 10C2.5 9.55797 2.67559 9.13405 2.98816 8.82149C3.30072 8.50893 3.72464 8.33333 4.16667 8.33333C4.60869 8.33333 5.03262 8.50893 5.34518 8.82149C5.65774 9.13405 5.83333 9.55797 5.83333 10ZM11.6667 10C11.6667 10.442 11.4911 10.8659 11.1785 11.1785C10.866 11.4911 10.442 11.6667 10 11.6667C9.55797 11.6667 9.13405 11.4911 8.82149 11.1785C8.50893 10.8659 8.33333 10.442 8.33333 10C8.33333 9.55797 8.50893 9.13405 8.82149 8.82149C9.13405 8.50893 9.55797 8.33333 10 8.33333C10.442 8.33333 10.866 8.50893 11.1785 8.82149C11.4911 9.13405 11.6667 9.55797 11.6667 10ZM17.5 10C17.5 10.442 17.3244 10.8659 17.0118 11.1785C16.6993 11.4911 16.2754 11.6667 15.8333 11.6667C15.3913 11.6667 14.9674 11.4911 14.6548 11.1785C14.3423 10.8659 14.1667 10.442 14.1667 10C14.1667 9.55797 14.3423 9.13405 14.6548 8.82149C14.9674 8.50893 15.3913 8.33333 15.8333 8.33333C16.2754 8.33333 16.6993 8.50893 17.0118 8.82149C17.3244 9.13405 17.5 9.55797 17.5 10Z" fill="var(--fill-0, black)" fill-opacity="0.8"/>
</g>
</svg>
