<svg preserveAspectRatio="none" width="100%" height="100%" overflow="visible" style="display: block;" viewBox="0 0 16 16" fill="none" xmlns="http://www.w3.org/2000/svg">
<g id="material-symbols:star-rounded">
<path id="Vector" d="M8 11.5167L5.23333 13.1833C5.11111 13.2611 4.98333 13.2944 4.85 13.2833C4.71667 13.2722 4.6 13.2278 4.5 13.15C4.4 13.0722 4.32222 12.9751 4.26667 12.8587C4.21111 12.7422 4.2 12.6116 4.23333 12.4667L4.96667 9.31667L2.51667 7.2C2.40556 7.1 2.33622 6.986 2.30867 6.858C2.28111 6.73 2.28933 6.60511 2.33333 6.48333C2.37733 6.36156 2.444 6.26156 2.53333 6.18333C2.62267 6.10511 2.74489 6.05511 2.9 6.03333L6.13333 5.75L7.38333 2.78333C7.43889 2.65 7.52511 2.55 7.642 2.48333C7.75889 2.41667 7.87822 2.38333 8 2.38333C8.12178 2.38333 8.24111 2.41667 8.358 2.48333C8.47489 2.55 8.56111 2.65 8.61667 2.78333L9.86667 5.75L13.1 6.03333C13.2556 6.05556 13.3778 6.10556 13.4667 6.18333C13.5556 6.26111 13.6222 6.36111 13.6667 6.48333C13.7111 6.60556 13.7196 6.73067 13.692 6.85867C13.6644 6.98667 13.5949 7.10044 13.4833 7.2L11.0333 9.31667L11.7667 12.4667C11.8 12.6111 11.7889 12.7418 11.7333 12.8587C11.6778 12.9756 11.6 13.0727 11.5 13.15C11.4 13.2273 11.2833 13.2718 11.15 13.2833C11.0167 13.2949 10.8889 13.2616 10.7667 13.1833L8 11.5167Z" fill="var(--fill-0, #FFC106)"/>
</g>
</svg>
