<svg preserveAspectRatio="none" width="100%" height="100%" overflow="visible" style="display: block;" viewBox="0 0 24 24" fill="none" xmlns="http://www.w3.org/2000/svg">
<g id="material-symbols:verified-rounded">
<path id="Vector" d="M10.9504 12.7L9.50039 11.275C9.31706 11.0917 9.08806 11 8.81339 11C8.53872 11 8.30106 11.1 8.10039 11.3C7.91706 11.4833 7.82539 11.7167 7.82539 12C7.82539 12.2833 7.91706 12.5167 8.10039 12.7L10.2504 14.85C10.4504 15.05 10.6837 15.15 10.9504 15.15C11.2171 15.15 11.4504 15.05 11.6504 14.85L15.9004 10.6C16.1004 10.4 16.1961 10.1667 16.1874 9.9C16.1787 9.63333 16.0831 9.4 15.9004 9.2C15.7004 9 15.4631 8.896 15.1884 8.888C14.9137 8.88 14.6761 8.97567 14.4754 9.175L10.9504 12.7ZM8.15039 21.75L6.70039 19.3L3.95039 18.7C3.70039 18.65 3.50039 18.521 3.35039 18.313C3.20039 18.105 3.14206 17.8757 3.17539 17.625L3.45039 14.8L1.57539 12.65C1.40872 12.4667 1.32539 12.25 1.32539 12C1.32539 11.75 1.40872 11.5333 1.57539 11.35L3.45039 9.2L3.17539 6.375C3.14206 6.125 3.20039 5.89567 3.35039 5.687C3.50039 5.47834 3.70039 5.34934 3.95039 5.3L6.70039 4.7L8.15039 2.25C8.28372 2.03334 8.46706 1.88734 8.70039 1.812C8.93372 1.73667 9.16706 1.74934 9.40039 1.85L12.0004 2.95L14.6004 1.85C14.8337 1.75 15.0671 1.73734 15.3004 1.812C15.5337 1.88667 15.7171 2.03267 15.8504 2.25L17.3004 4.7L20.0504 5.3C20.3004 5.35 20.5004 5.47934 20.6504 5.688C20.8004 5.89667 20.8587 6.12567 20.8254 6.375L20.5504 9.2L22.4254 11.35C22.5921 11.5333 22.6754 11.75 22.6754 12C22.6754 12.25 22.5921 12.4667 22.4254 12.65L20.5504 14.8L20.8254 17.625C20.8587 17.875 20.8004 18.1043 20.6504 18.313C20.5004 18.5217 20.3004 18.6507 20.0504 18.7L17.3004 19.3L15.8504 21.75C15.7171 21.9667 15.5337 22.1127 15.3004 22.188C15.0671 22.2633 14.8337 22.2507 14.6004 22.15L12.0004 21.05L9.40039 22.15C9.16706 22.25 8.93372 22.2627 8.70039 22.188C8.46706 22.1133 8.28372 21.9673 8.15039 21.75Z" fill="var(--fill-0, #4C9EFF)"/>
</g>
</svg>
