<svg preserveAspectRatio="none" width="100%" height="100%" overflow="visible" style="display: block;" viewBox="0 0 16 16" fill="none" xmlns="http://www.w3.org/2000/svg">
<g id="material-symbols:call-outline-sharp">
<path id="Vector" d="M13.3 14C11.9111 14 10.5362 13.7 9.17533 13.1C7.81444 12.5 6.57822 11.6444 5.46667 10.5333C4.35511 9.42222 3.49956 8.18889 2.9 6.83333C2.30044 5.47778 2.00044 4.1 2 2.7V2H5.93333L6.55 5.35L4.65 7.26667C4.89444 7.7 5.16667 8.11111 5.46667 8.5C5.76667 8.88889 6.08889 9.25 6.43333 9.58333C6.75556 9.90556 7.10844 10.214 7.492 10.5087C7.87556 10.8033 8.28933 11.0782 8.73333 11.3333L10.6667 9.4L14 10.0833V14H13.3ZM4.01667 6L5.11667 4.9L4.83333 3.33333H3.35C3.40556 3.83333 3.48889 4.30289 3.6 4.742C3.71111 5.18111 3.85 5.60044 4.01667 6ZM9.98333 11.9667C10.4278 12.1556 10.8751 12.3056 11.3253 12.4167C11.7756 12.5278 12.2227 12.6 12.6667 12.6333V11.1667L11.1 10.85L9.98333 11.9667Z" fill="var(--fill-0, black)" fill-opacity="0.8"/>
</g>
</svg>
