<svg preserveAspectRatio="none" width="100%" height="100%" overflow="visible" style="display: block;" viewBox="0 0 8 9" fill="none" xmlns="http://www.w3.org/2000/svg">
<g id="Icon">
<path id="Shape" fill-rule="evenodd" clip-rule="evenodd" d="M4 0C1.81403 0.0505814 0.0549527 1.66973 0 3.68182C0.037087 4.27672 0.215341 4.85692 0.522222 5.38159L0.553333 5.43273C2.97111 9 3.69333 9 4 9C4.48 9 4.99778 8.68909 6.22222 7.10386C6.86444 6.28568 7.41556 5.4675 7.43778 5.43068L7.46889 5.38159C7.77887 4.85758 7.96017 4.27735 8 3.68182C7.94505 1.66973 6.18597 0.0505814 4 0V0ZM6.88934 5.11365C6.88934 5.11365 4.66712 8.38637 4.00045 8.38637C3.33378 8.38637 1.11156 5.11365 1.11156 5.11365C0.853216 4.67137 0.701616 4.18298 0.667118 3.68183C0.667118 1.98732 2.1595 0.613647 4.00045 0.613647C5.8414 0.613647 7.33378 1.98732 7.33378 3.68183C7.29722 4.18344 7.14334 4.67186 6.88267 5.11365H6.88934Z" fill="var(--fill-0, black)"/>
<path id="Shape_2" fill-rule="evenodd" clip-rule="evenodd" d="M3.99948 1.84088C3.01764 1.84088 2.2217 2.57351 2.2217 3.47725C2.2217 4.38098 3.01764 5.11361 3.99948 5.11361C4.98132 5.11361 5.77725 4.38098 5.77725 3.47725C5.77725 2.57351 4.98132 1.84088 3.99948 1.84088ZM3.99993 4.49998C3.38628 4.49998 2.88882 4.04209 2.88882 3.47726C2.88882 2.91242 3.38628 2.45453 3.99993 2.45453C4.61358 2.45453 5.11104 2.91242 5.11104 3.47726C5.11104 4.04209 4.61358 4.49998 3.99993 4.49998Z" fill="var(--fill-0, black)"/>
</g>
</svg>
