<svg preserveAspectRatio="none" width="100%" height="100%" overflow="visible" style="display: block;" viewBox="0 0 24 24" fill="none" xmlns="http://www.w3.org/2000/svg">
<g id="material-symbols:video-call-outline-rounded">
<path id="Vector" d="M9 13V15C9 15.2833 9.096 15.521 9.288 15.713C9.48 15.905 9.71733 16.0007 10 16C10.2827 15.9993 10.5203 15.9033 10.713 15.712C10.9057 15.5207 11.0013 15.2833 11 15V13H13C13.2833 13 13.521 12.904 13.713 12.712C13.905 12.52 14.0007 12.2827 14 12C13.9993 11.7173 13.9033 11.48 13.712 11.288C13.5207 11.096 13.2833 11 13 11H11V9C11 8.71667 10.904 8.47933 10.712 8.288C10.52 8.09667 10.2827 8.00067 10 8C9.71733 7.99933 9.48 8.09533 9.288 8.288C9.096 8.48067 9 8.718 9 9V11H7C6.71667 11 6.47933 11.096 6.288 11.288C6.09667 11.48 6.00067 11.7173 6 12C5.99933 12.2827 6.09533 12.5203 6.288 12.713C6.48067 12.9057 6.718 13.0013 7 13H9ZM4 20C3.45 20 2.97933 19.8043 2.588 19.413C2.19667 19.0217 2.00067 18.5507 2 18V6C2 5.45 2.196 4.97933 2.588 4.588C2.98 4.19667 3.45067 4.00067 4 4H16C16.55 4 17.021 4.196 17.413 4.588C17.805 4.98 18.0007 5.45067 18 6V10.5L21.15 7.35C21.3167 7.18333 21.5 7.14167 21.7 7.225C21.9 7.30833 22 7.46667 22 7.7V16.3C22 16.5333 21.9 16.6917 21.7 16.775C21.5 16.8583 21.3167 16.8167 21.15 16.65L18 13.5V18C18 18.55 17.8043 19.021 17.413 19.413C17.0217 19.805 16.5507 20.0007 16 20H4ZM4 18H16V6H4V18Z" fill="var(--fill-0, black)" fill-opacity="0.8"/>
</g>
</svg>
