<svg preserveAspectRatio="none" width="100%" height="100%" overflow="visible" style="display: block;" viewBox="0 0 18 19" fill="none" xmlns="http://www.w3.org/2000/svg">
<g id="Group">
<path id="Vector" d="M8.17857 2.42105H3.03571C2.42951 2.42105 1.84812 2.66187 1.41947 3.09052C0.990816 3.51918 0.75 4.10056 0.75 4.70677V14.9925C0.75 15.5987 0.990816 16.1801 1.41947 16.6087C1.84812 17.0374 2.42951 17.2782 3.03571 17.2782H14.4643C15.0705 17.2782 15.6519 17.0374 16.0805 16.6087C16.5092 16.1801 16.75 15.5987 16.75 14.9925V9.84963" stroke="var(--stroke-0, black)" stroke-opacity="0.8" stroke-width="1.5" stroke-linecap="round" stroke-linejoin="round"/>
<path id="Vector_2" d="M14.4643 3.56391L15.5534 4.70677M16.75 1.24048C17.0552 1.55524 17.2243 1.97747 17.2207 2.41589C17.217 2.85432 17.041 3.27369 16.7306 3.58334L8.75 11.5639L5.32143 12.7068L6.46429 9.2782L14.4494 1.22563C14.7303 0.942974 15.1059 0.7744 15.5037 0.75245C15.9016 0.730499 16.2935 0.856729 16.6037 1.10677L16.75 1.24048Z" stroke="var(--stroke-0, black)" stroke-opacity="0.8" stroke-width="1.5" stroke-linecap="round" stroke-linejoin="round"/>
</g>
</svg>
