<svg preserveAspectRatio="none" width="100%" height="100%" overflow="visible" style="display: block;" viewBox="0 0 40 40" fill="none" xmlns="http://www.w3.org/2000/svg">
<g id="Frame" clip-path="url(#clip0_5303_1154)">
<path id="Vector" d="M32.8824 5.27258C33.2377 5.27656 33.4814 5.32572 33.833 5.38828C35.4568 5.66977 36.9516 6.45355 38.1066 7.62928C38.4314 7.9624 38.6187 8.25494 38.8807 8.6359C39.7748 9.93551 40.0461 11.4749 39.8408 13.0221C39.8201 13.1789 39.7402 13.4544 39.7348 13.5928C39.5881 14.0513 39.4654 14.4565 39.2568 14.9013C38.8184 15.8366 38.0895 16.7191 37.2918 17.3729C36.9094 17.6863 36.2174 18.0833 35.7863 18.3079C34.9805 18.7276 34.1727 19.1321 33.4021 19.6184C33.2264 19.7293 32.8605 19.9383 32.7176 20.0645C32.641 20.098 32.6324 20.1068 32.5656 20.1602C32.6668 20.209 33.1779 20.3477 33.3199 20.3932C33.783 20.5393 34.2332 20.7236 34.6658 20.9443C35.2385 21.235 35.8912 21.6678 36.3721 22.0969C36.5994 22.2506 36.7666 22.4395 36.9559 22.6322C37.8463 23.5389 38.534 24.8105 38.7762 26.0629C38.808 26.2299 38.835 26.3977 38.8572 26.5662C38.9035 27.0176 38.9184 27.3533 38.8846 27.8086C38.8656 28.1805 38.859 28.4313 38.7873 28.7955C38.7781 29.0594 38.6605 29.5578 38.5922 29.8115C38.1072 31.6098 37.0303 33.3625 35.766 34.7193C35.5979 34.8998 35.3791 35.1582 35.2012 35.3209C34.2117 36.2256 32.8332 37.3354 31.6369 37.923C31.525 38.001 31.2859 38.124 31.1586 38.1893C30.0117 38.7771 28.7512 39.1936 27.4857 39.4309C27.1105 39.5012 26.4488 39.5537 26.0645 39.5586C25.5754 39.5648 24.7766 39.5434 24.3035 39.4586C23.0254 39.2295 21.7254 38.6664 20.7043 37.8627C19.8984 37.2285 19.2244 36.4928 18.4688 35.8262C17.5101 34.9805 16.4533 34.2973 15.4074 33.5797C15.2469 33.5146 15.247 33.4998 15.0881 33.5816C13.9999 33.9352 12.7693 34.1195 11.6311 34.2064C11.5074 34.1295 11.1041 34.1498 10.9392 34.149C10.7487 33.9387 10.123 32.1357 10.0086 31.7732C9.96361 31.6305 9.85398 31.0475 9.82412 30.8687C10.417 31.151 11.0165 31.4191 11.6222 31.6729C11.5172 31.5574 10.1811 30.9902 9.91238 30.8625C9.94272 30.8588 9.97527 30.8615 9.99086 30.8434C10.0607 30.7615 10.1259 30.5619 10.1267 30.458C9.99953 30.348 10.181 29.7928 10.1005 29.6002C10.0173 29.401 9.93027 29.1234 10.0809 28.9357C10.1934 28.7953 10.1573 28.5562 10.206 28.3828C10.2137 28.3529 10.3281 27.816 10.3338 27.7928C10.3364 27.7822 10.1187 27.6398 10.194 27.5076C10.2059 27.3361 10.3865 27.0383 10.3654 26.9125C10.3088 26.9488 10.3303 26.9428 10.2683 26.9563C10.2417 26.8342 10.4044 26.69 10.4262 26.5326C10.3908 26.5576 10.3855 26.5623 10.3461 26.5793C10.3286 26.451 10.7829 26.2133 10.8505 26.083C10.8822 26.0217 11.0584 25.8221 11.1136 25.7574L11.1344 25.7561C11.1163 25.8459 11.0776 25.8693 11.0537 25.9459L11.0723 25.9553C11.1215 25.8996 11.2139 25.7986 11.2409 25.7312C11.2683 25.6633 11.2062 25.6949 11.1751 25.6232C11.2162 25.59 11.1927 25.5978 11.2455 25.5998C11.2996 25.64 11.3338 25.674 11.3995 25.6875C11.4963 25.6346 11.3905 25.6658 11.4568 25.5639L11.5125 25.5738C11.499 25.6145 11.5009 25.5949 11.5037 25.632C11.6477 25.6449 11.6324 25.5258 11.7685 25.5297C11.7887 25.5752 11.7924 25.5883 11.8215 25.6279L11.8653 25.6156C12.0483 25.359 12.1736 25.56 12.3892 25.6006C12.6857 25.6562 12.8466 25.8232 13.125 25.9217C13.2783 25.9758 13.4659 26.0033 13.6268 26.0592C13.7835 26.1137 13.9373 26.1734 14.093 26.2309C14.1831 26.2553 14.2511 26.2414 14.3414 26.276C14.5594 26.3592 14.8307 26.5687 15.0607 26.5918C15.5204 26.7906 15.9754 27.0203 16.4236 27.2438C16.5067 27.1938 16.586 27.1141 16.6799 27.0604C19.2691 25.5828 20.6814 23.0312 22.7355 20.9441C23.6078 20.0359 24.5137 19.1606 25.4512 18.3201C25.8023 18.0043 26.1576 17.6931 26.5168 17.3865C26.6334 17.2868 26.8051 17.1845 26.9 17.0877C27.0244 16.9833 27.1643 16.8844 27.291 16.7837C29.726 14.8488 32.4748 12.9404 33.6641 9.93738C33.7992 9.59598 33.8836 9.25975 33.9797 8.90131C34.1387 8.54988 34.1324 7.6592 34.0795 7.28775C33.9732 6.54043 33.6488 5.95033 33.0281 5.51332C32.9268 5.44193 32.718 5.34117 32.7023 5.32928L32.7162 5.30955C32.7801 5.29885 32.8197 5.28938 32.8824 5.27258ZM24.0521 31.9898C24.233 31.9688 24.5523 31.9969 24.7498 31.9787C25.0604 31.9502 25.3854 31.9148 25.6943 31.8752C26.1486 31.7701 26.4691 31.7047 26.9244 31.5637C26.9643 31.5461 27.0883 31.51 27.1357 31.4945C27.3748 31.4146 27.7461 31.2496 27.9885 31.148C28.0525 31.1109 28.1498 31.0697 28.2193 31.0369C28.627 30.8441 29.0078 30.6227 29.3941 30.3904C30.1006 29.9658 30.3875 29.7066 30.9695 29.1197C31.5799 28.5223 32.1625 27.5963 32.3578 26.7592C32.6574 25.8176 32.3781 24.7746 31.715 24.0598L31.5965 23.948C31.4596 23.8158 31.2881 23.7203 31.126 23.623C30.4393 23.2113 29.7027 23.1555 28.9215 23.1826C28.8045 23.1857 28.7818 23.1916 28.6687 23.2242C28.5127 23.374 28.317 23.5342 28.1719 23.6832C27.4443 24.4297 26.7066 25.2061 26.0441 26.0105C25.6164 26.5377 25.1918 27.0672 24.7703 27.5992C24.3895 28.0838 24.1061 28.4824 23.6746 28.9398C23.2768 29.3615 22.9416 29.6889 22.4754 30.049C22.3262 30.1645 21.9168 30.4521 21.8197 30.5609L21.892 30.5967C22.166 30.8211 23.4092 31.8771 23.5994 31.9494C23.7326 32.0002 23.9096 31.9723 24.0521 31.9898Z" fill="var(--fill-0, #1FA1ED)"/>
<path id="Vector_2" d="M32.8824 5.27258C33.2377 5.27656 33.4814 5.32572 33.833 5.38828C35.4568 5.66977 36.9516 6.45355 38.1066 7.62928C38.4314 7.9624 38.6187 8.25494 38.8807 8.6359C39.7748 9.93551 40.0461 11.4749 39.8408 13.0221C39.8201 13.1789 39.7402 13.4544 39.7348 13.5928C39.5881 14.0513 39.4654 14.4565 39.2568 14.9013C38.8184 15.8366 38.0895 16.7191 37.2918 17.3729C36.9094 17.6863 36.2174 18.0833 35.7863 18.3079C34.9805 18.7276 34.1727 19.1321 33.4021 19.6184C33.2264 19.7293 32.8605 19.9383 32.7176 20.0645C32.641 20.098 32.6324 20.1068 32.5656 20.1602C32.4377 20.2049 32.2408 20.3578 32.1242 20.443C31.0416 21.234 29.9416 22.025 28.9537 22.934C28.8621 23.0182 28.7744 23.1064 28.6807 23.1877L28.6687 23.2242C28.5127 23.374 28.317 23.5342 28.1719 23.6832C27.4443 24.4297 26.7066 25.2061 26.0441 26.0105C25.6164 26.5377 25.1918 27.0672 24.7703 27.5992C24.3895 28.0838 24.1061 28.4824 23.6746 28.9398C23.2768 29.3615 22.9416 29.6889 22.4754 30.049C22.3262 30.1645 21.9168 30.4521 21.8197 30.5609C21.6891 30.5094 21.2824 30.177 21.1443 30.0711C20.5004 29.5772 19.8516 29.1688 19.1595 28.7484C18.6483 28.4324 18.1286 28.1305 17.6009 27.8428C17.4487 27.7615 16.4672 27.3086 16.4236 27.2438C16.5067 27.1938 16.586 27.1141 16.6799 27.0604C19.2691 25.5828 20.6814 23.0312 22.7355 20.9441C23.6078 20.0359 24.5137 19.1606 25.4512 18.3201C25.8023 18.0043 26.1576 17.6931 26.5168 17.3865C26.6334 17.2868 26.8051 17.1845 26.9 17.0877C27.0244 16.9833 27.1643 16.8844 27.291 16.7837C29.726 14.8488 32.4748 12.9404 33.6641 9.93738C33.7992 9.59598 33.8836 9.25975 33.9797 8.90131C34.1387 8.54988 34.1324 7.6592 34.0795 7.28775C33.9732 6.54043 33.6488 5.95033 33.0281 5.51332C32.9268 5.44193 32.718 5.34117 32.7023 5.32928L32.7162 5.30955C32.7801 5.29885 32.8197 5.28938 32.8824 5.27258Z" fill="url(#paint0_linear_5303_1154)"/>
<path id="Vector_3" d="M28.6687 23.2242L28.6807 23.1877C28.7744 23.1064 28.8621 23.0182 28.9537 22.934C29.9416 22.025 31.0416 21.234 32.1242 20.443C32.2408 20.3578 32.4377 20.2049 32.5656 20.1602C32.6668 20.209 33.1779 20.3477 33.3199 20.3932C33.783 20.5393 34.2332 20.7236 34.6658 20.9443C35.2385 21.235 35.8912 21.6678 36.3721 22.0969C36.5994 22.2506 36.7666 22.4395 36.9559 22.6322C37.8463 23.5389 38.534 24.8105 38.7762 26.0629C38.808 26.2299 38.835 26.3977 38.8572 26.5662C38.9035 27.0176 38.9184 27.3533 38.8846 27.8086C38.8656 28.1805 38.859 28.4313 38.7873 28.7955C38.7643 28.7164 38.7701 28.6236 38.7695 28.5396C38.7441 28.6248 38.7348 28.6912 38.6998 28.7746L38.6791 28.7354C38.3539 30 37.7361 31.1703 36.8756 32.1523C36.7098 32.3439 36.3498 32.7193 36.135 32.8469C35.9398 33.0648 35.1572 33.5811 34.8963 33.7016C34.8572 33.7244 34.8266 33.7432 34.7855 33.7633C34.4891 33.9723 33.5262 34.3389 33.158 34.4238C32.957 34.498 32.5529 34.5826 32.3355 34.6211C30.8816 34.8779 29.5346 34.7557 28.1166 34.3709C27.6971 34.257 27.3365 34.1016 26.9316 33.9678C26.7252 33.8563 26.3738 33.7064 26.1754 33.6109C25.8119 33.4361 23.8111 32.3188 23.6975 32.024L24.0521 31.9898C24.233 31.9688 24.5523 31.9969 24.7498 31.9787C25.0604 31.9502 25.3854 31.9148 25.6943 31.8752C26.1486 31.7701 26.4691 31.7047 26.9244 31.5637C26.9643 31.5461 27.0883 31.51 27.1357 31.4945C27.3748 31.4146 27.7461 31.2496 27.9885 31.148C28.0525 31.1109 28.1498 31.0697 28.2193 31.0369C28.627 30.8441 29.0078 30.6227 29.3941 30.3904C30.1006 29.9658 30.3875 29.7066 30.9695 29.1197C31.5799 28.5223 32.1625 27.5963 32.3578 26.7592C32.6574 25.8176 32.3781 24.7746 31.715 24.0598L31.5965 23.948C31.4596 23.8158 31.2881 23.7203 31.126 23.623C30.4393 23.2113 29.7027 23.1555 28.9215 23.1826C28.8045 23.1857 28.7818 23.1916 28.6687 23.2242Z" fill="url(#paint1_linear_5303_1154)"/>
<path id="Vector_4" d="M28.6688 23.2242L28.6807 23.1877C28.7744 23.1064 28.8621 23.0182 28.9537 22.934C29.9416 22.025 31.0416 21.234 32.1242 20.443C32.2408 20.3578 32.4377 20.2049 32.5656 20.1602C32.6668 20.209 33.1779 20.3477 33.3199 20.3932C33.783 20.5393 34.2332 20.7236 34.6658 20.9443C35.2385 21.235 35.8912 21.6678 36.3721 22.0969C36.1727 22.0955 35.8729 22.0934 35.676 22.1367C34.7605 22.3383 33.7619 22.625 32.9275 23.0451C32.6313 23.1979 32.3461 23.3717 32.0748 23.5652C31.9789 23.633 31.693 23.8086 31.668 23.9027C31.6871 23.9594 31.6996 24.002 31.715 24.0598L31.5965 23.948C31.4596 23.8158 31.2881 23.7203 31.126 23.623C30.4393 23.2113 29.7027 23.1555 28.9215 23.1826C28.8045 23.1857 28.7818 23.1916 28.6688 23.2242Z" fill="var(--fill-0, #5B4AC2)"/>
<path id="Vector_5" d="M29.3941 30.3904L29.5195 30.3832C29.3234 30.499 29.0826 30.6408 28.8963 30.7705C28.7029 30.8611 28.6439 30.8561 28.5727 31.0408C28.3701 31.2055 27.8162 31.4873 27.5582 31.5139C27.1922 31.5516 27.2527 31.4812 26.8813 31.6377L26.9244 31.5637C26.9643 31.5461 27.0883 31.51 27.1357 31.4945C27.3748 31.4146 27.7461 31.2496 27.9885 31.148C28.0525 31.1109 28.1498 31.0697 28.2193 31.0369C28.627 30.8441 29.0078 30.6227 29.3941 30.3904Z" fill="var(--fill-0, #23C5E3)"/>
<path id="Vector_6" d="M27.9885 31.148C27.968 31.1998 27.9662 31.1971 27.9266 31.2375L27.9395 31.235C27.777 31.3682 27.3445 31.4943 27.1357 31.4945C27.3748 31.4146 27.7461 31.2496 27.9885 31.148Z" fill="var(--fill-0, #2CB8DF)"/>
<path id="Vector_7" d="M34.8963 33.7016C34.9748 33.5787 35.1338 33.5746 35.2645 33.4488C35.2002 33.3873 35.1742 33.3912 35.1574 33.3217C35.3816 32.8773 35.6914 32.9324 35.951 32.6336L35.9695 32.6119C36.0299 32.6199 36.0064 32.6188 36.0664 32.6645C36.035 32.7311 35.9693 32.7539 35.8951 32.8111C35.868 32.8805 35.8687 32.8754 35.8717 32.9498C35.9602 33.009 36.0023 32.8514 36.135 32.8469C35.9398 33.0648 35.1572 33.5811 34.8963 33.7016Z" fill="var(--fill-0, #12E7F9)"/>
<path id="Vector_8" d="M29.3941 30.3904C30.1006 29.9658 30.3875 29.7066 30.9695 29.1197C30.993 29.399 30.5654 29.7373 30.375 29.9098C30.3066 29.9715 30.1965 30.0303 30.1016 30.0166L30.1072 29.9666C30.0479 30.0178 30.0117 30.0486 29.9793 30.1236C29.9176 30.1557 29.5457 30.3803 29.5195 30.3832L29.3941 30.3904Z" fill="var(--fill-0, #2CB8DF)"/>
<path id="Vector_9" d="M33.158 34.4238C33.2627 34.2891 34.2125 34.1463 34.159 33.9676C34.0937 33.9998 34.0916 34.0541 34.0062 34.0461C33.891 34.0355 33.8467 33.9437 33.8549 33.8381C33.8936 33.773 33.8982 33.7855 33.975 33.7641L34.0176 33.6787L34.0578 33.6684C34.1096 33.6812 34.1488 33.7152 34.1809 33.758C34.2187 33.8086 34.3008 33.7184 34.3855 33.7521C34.3561 33.8078 34.3477 33.8121 34.3502 33.8756C34.3631 33.8904 34.376 33.9055 34.3889 33.9203C34.5021 33.9121 34.6684 33.748 34.7855 33.7633C34.4891 33.9723 33.5262 34.3389 33.158 34.4238Z" fill="var(--fill-0, #12E7F9)"/>
<path id="Vector_10" d="M25.6943 31.8752C26.1486 31.7701 26.4691 31.7047 26.9244 31.5637L26.8812 31.6377C26.7113 31.7162 26.7523 31.8863 26.3738 31.8576C26.1836 31.843 25.9023 31.9002 25.6943 31.8752Z" fill="var(--fill-0, #2CB8DF)"/>
<path id="Vector_11" d="M29.5195 30.3832C29.5457 30.3803 29.9176 30.1557 29.9793 30.1236C29.9207 30.3225 29.5775 30.4732 29.4143 30.5978C29.3742 30.6285 29.2951 30.6535 29.2436 30.6621L29.2105 30.6475C29.2279 30.6238 29.242 30.6062 29.257 30.5811C29.099 30.6814 29.0645 30.7562 28.8963 30.7705C29.0826 30.6408 29.3234 30.499 29.5195 30.3832Z" fill="var(--fill-0, #12E7F9)"/>
<path id="Vector_12" d="M38.8572 26.5662C38.9035 27.0176 38.9184 27.3533 38.8846 27.8086L38.8523 27.7145L38.8096 27.7096C38.7881 27.5094 38.785 26.7326 38.8572 26.5662Z" fill="var(--fill-0, #2CB8DF)"/>
<path id="Vector_13" d="M38.8096 27.7096L38.8523 27.7145L38.8846 27.8086C38.8656 28.1805 38.859 28.4312 38.7873 28.7955C38.7643 28.7164 38.7701 28.6236 38.7695 28.5396C38.7441 28.6248 38.7348 28.6912 38.6998 28.7746L38.6791 28.7354C38.7561 28.3984 38.7998 28.0549 38.8096 27.7096Z" fill="var(--fill-0, #087395)"/>
<path id="Vector_14" d="M35.7023 32.6231L35.7416 32.6432C35.7365 32.692 35.7398 32.7047 35.7547 32.7518C35.7014 32.7422 35.7232 32.7555 35.6844 32.7186L35.7023 32.6231Z" fill="var(--fill-0, #12E7F9)"/>
<path id="Vector_15" d="M9.82412 30.8687C10.417 31.151 11.0165 31.4191 11.6222 31.6729C11.9114 31.8361 12.5373 32.0895 12.8709 32.2457C13.5444 32.565 14.2102 32.9006 14.8678 33.2518C14.961 33.3004 15.353 33.492 15.402 33.5527L15.4074 33.5797C15.2469 33.5146 15.247 33.4998 15.0881 33.5816C13.9999 33.9352 12.7693 34.1195 11.6311 34.2064C11.5074 34.1295 11.1041 34.1498 10.9392 34.149C10.7487 33.9387 10.123 32.1357 10.0086 31.7732C9.96361 31.6305 9.85398 31.0475 9.82412 30.8687Z" fill="var(--fill-0, #5B4AC2)"/>
<path id="Vector_16" d="M38.7695 28.5396C38.7701 28.6236 38.7643 28.7164 38.7873 28.7955C38.7781 29.0594 38.6605 29.5578 38.5922 29.8115C38.1072 31.6098 37.0303 33.3625 35.766 34.7193C35.5979 34.8998 35.3791 35.1582 35.2012 35.3209C34.2117 36.2256 32.8332 37.3354 31.6369 37.923C31.7111 37.7607 31.8133 37.7738 31.9393 37.684C32.1842 37.5025 32.5213 37.3744 32.7662 37.2098C33.3883 36.7912 33.9908 36.3311 34.5584 35.842C34.6752 35.7412 34.7852 35.6541 34.9029 35.5457C35.4838 35.0105 36.0303 34.4131 36.5076 33.7832C36.5875 33.6783 36.6754 33.608 36.7303 33.4887L36.7178 33.477L36.6186 33.5437C36.5908 33.5152 36.6004 33.493 36.5973 33.44L36.5795 33.4295C36.5428 33.4691 36.5213 33.5035 36.4912 33.5479L36.4809 33.5211C36.4217 33.5953 36.4125 33.7113 36.3738 33.7479C36.3447 33.7754 36.2223 33.8383 36.1615 33.899L36.1434 33.8852L36.1301 33.9211L36.1137 33.9223C36.0994 33.8557 36.1082 33.8373 36.0678 33.7996C35.9982 33.8783 35.9779 33.9129 35.8814 33.9561L35.8127 33.9191C35.7398 33.9607 35.743 34.0658 35.6621 34.1277L35.6137 34.0857C35.5557 34.1756 34.6293 34.7418 34.4453 34.7957C34.3273 34.8303 34.007 34.9469 33.8785 34.8795C33.8441 34.8613 33.8066 34.8455 33.7609 34.8627C33.5436 34.9436 33.308 34.8621 33.0844 34.8363C33.0533 34.8328 32.9479 34.791 32.9305 34.7914C32.8168 34.7928 32.7498 34.8363 32.627 34.8309C32.4779 34.7213 32.5107 34.8131 32.2873 34.852C32.0213 34.8982 31.6803 34.8764 31.4373 34.9344C31.1693 34.9984 31.0756 34.9104 30.8213 34.9096C30.7105 34.9094 30.6066 34.9227 30.4793 34.9203L30.4637 34.9025C30.5322 34.8691 30.6529 34.8686 30.7336 34.8627C30.7369 34.8635 30.373 34.8549 30.3816 34.8529L30.3678 34.9021L30.3449 34.9104C30.3133 34.8973 30.1287 34.8158 30.1152 34.8129C29.9287 34.7711 29.7574 34.8307 29.5904 34.7281C29.5088 34.6781 29.2443 34.6758 29.0775 34.6367C28.3248 34.4607 27.6434 34.3063 26.9283 33.9947L26.9316 33.9678C27.3365 34.1016 27.6971 34.257 28.1166 34.3709C29.5346 34.7557 30.8816 34.8779 32.3355 34.6211C32.5529 34.5826 32.957 34.498 33.158 34.4238C33.5262 34.3389 34.4891 33.9723 34.7855 33.7633C34.8266 33.7432 34.8572 33.7244 34.8963 33.7016C35.1572 33.5811 35.9398 33.0648 36.135 32.8469C36.3498 32.7193 36.7098 32.3439 36.8756 32.1523C37.7361 31.1703 38.3539 30 38.6791 28.7354L38.6998 28.7746C38.7348 28.6912 38.7441 28.6248 38.7695 28.5396Z" fill="url(#paint2_linear_5303_1154)"/>
<path id="Vector_17" d="M7.58934 9.46346C7.62506 9.46682 7.65256 9.46998 7.68529 9.45092C8.64197 8.89406 9.6392 8.40518 10.6433 7.94018C10.9897 7.77977 11.3355 7.58385 11.7165 7.52373C12.2073 7.76461 12.7348 8.12162 13.1709 8.45459C13.2733 8.53285 13.5229 8.77371 13.6162 8.77918C14.0407 9.13582 14.4084 9.4391 14.8138 9.81898C15.2078 10.1881 15.6382 10.6506 16.057 10.9659C15.7582 11.0717 15.4648 11.1329 15.1643 11.2259C14.6724 11.382 14.1925 11.5736 13.7282 11.7991C13.2419 12.0371 12.7698 12.3403 12.3069 12.6205C12.2144 12.6766 12.1176 12.7235 12.0182 12.7659L12.0117 12.7912L12.0713 12.8127C11.7035 12.968 11.234 13.3162 10.8845 13.5247C9.98412 14.0618 8.35322 15.0804 7.8017 15.9544C6.21488 19.2078 8.40125 22.8635 11.1478 24.6596C11.6637 24.9969 12.2211 25.2522 12.7619 25.5402C13.4831 25.9242 14.3657 26.184 15.0607 26.5918C14.8307 26.5688 14.5594 26.3592 14.3414 26.276C14.2511 26.2414 14.1831 26.2553 14.093 26.2309C13.9373 26.1734 13.7835 26.1137 13.6268 26.0592C13.4659 26.0033 13.2783 25.9758 13.125 25.9217C12.8466 25.8232 12.6857 25.6563 12.3892 25.6006C12.1736 25.56 12.0483 25.359 11.8653 25.6156L11.8215 25.6279C11.7924 25.5883 11.7887 25.5752 11.7685 25.5297C11.6324 25.5258 11.6477 25.6449 11.5037 25.632C11.5009 25.5949 11.499 25.6145 11.5125 25.5738L11.4568 25.5639C11.3905 25.6658 11.4962 25.6346 11.3995 25.6875C11.3338 25.674 11.2996 25.64 11.2455 25.5998C11.1927 25.5979 11.2162 25.59 11.1751 25.6232C11.2062 25.6949 11.2683 25.6633 11.2409 25.7312C11.2139 25.7986 11.1215 25.8996 11.0723 25.9553L11.0537 25.9459C11.0776 25.8693 11.1163 25.8459 11.1344 25.7561L11.1136 25.7574C11.0584 25.8221 10.8822 26.0217 10.8505 26.083C10.7829 26.2133 10.3286 26.451 10.3461 26.5793C10.3855 26.5623 10.3908 26.5576 10.4262 26.5326C10.4044 26.69 10.2417 26.8342 10.2683 26.9563C10.3303 26.9428 10.3088 26.9488 10.3654 26.9125C10.3865 27.0383 10.2059 27.3361 10.194 27.5076C10.1187 27.6398 10.3364 27.7822 10.3338 27.7928C10.3281 27.816 10.2137 28.3529 10.206 28.3828C10.1573 28.5563 10.1934 28.7953 10.0809 28.9357C9.93027 29.1234 10.0173 29.401 10.1005 29.6002C10.181 29.7928 9.99953 30.348 10.1267 30.458C10.1259 30.5619 10.0607 30.7615 9.99086 30.8434C9.97527 30.8615 9.94271 30.8588 9.91238 30.8625C10.1811 30.9902 11.5172 31.5574 11.6222 31.6729C11.0165 31.4191 10.417 31.151 9.82412 30.8688C9.85398 31.0475 9.96361 31.6305 10.0086 31.7732C10.123 32.1357 10.7487 33.9387 10.9392 34.149C11.1041 34.1498 11.5074 34.1295 11.6311 34.2064C11.2068 34.2746 10.0262 34.2736 9.60666 34.2016C6.46439 34.001 3.66285 32.4969 2.14482 29.6883C1.16321 27.8721 0.65185 25.8256 0.393281 23.7824C0.225568 22.457 0.268598 21.0232 0.390666 19.6934C0.803174 16.5816 2.11758 13.6662 4.5273 11.5947C5.52709 10.7353 6.47182 10.1032 7.58934 9.46346Z" fill="url(#paint3_linear_5303_1154)"/>
<path id="Vector_18" d="M9.82412 30.8688C9.62092 30.7355 9.35588 30.5523 9.15342 30.4359C8.42971 30.0369 7.82115 29.6713 7.27291 29.0352C5.60373 27.0982 5.29762 24.4582 5.46256 21.9928C5.58467 20.1672 6.10627 18.3069 7.13822 16.7713C7.27408 16.5691 7.58217 16.0951 7.76537 15.9404L7.8017 15.9544C6.21488 19.2078 8.40125 22.8635 11.1478 24.6596C11.6637 24.9969 12.2211 25.2521 12.7619 25.5402C13.4831 25.9242 14.3657 26.184 15.0607 26.5918C14.8307 26.5688 14.5594 26.3592 14.3414 26.276C14.2511 26.2414 14.1831 26.2553 14.0929 26.2309C13.9373 26.1734 13.7835 26.1137 13.6268 26.0592C13.4659 26.0033 13.2783 25.9758 13.125 25.9217C12.8466 25.8232 12.6857 25.6563 12.3892 25.6006C12.1736 25.56 12.0483 25.359 11.8653 25.6156L11.8215 25.6279C11.7924 25.5883 11.7887 25.5752 11.7685 25.5297C11.6324 25.5258 11.6477 25.6449 11.5037 25.632C11.5009 25.5949 11.499 25.6145 11.5125 25.5738L11.4568 25.5639C11.3905 25.6658 11.4962 25.6346 11.3995 25.6875C11.3338 25.674 11.2996 25.64 11.2455 25.5998C11.1927 25.5979 11.2162 25.59 11.1751 25.6232C11.2062 25.6949 11.2683 25.6633 11.2409 25.7312C11.2139 25.7986 11.1215 25.8996 11.0723 25.9553L11.0537 25.9459C11.0776 25.8693 11.1163 25.8459 11.1344 25.7561L11.1136 25.7574C11.0584 25.8221 10.8822 26.0217 10.8504 26.083C10.7829 26.2133 10.3286 26.451 10.3461 26.5793C10.3855 26.5623 10.3908 26.5576 10.4262 26.5326C10.4044 26.69 10.2417 26.8342 10.2683 26.9563C10.3303 26.9428 10.3088 26.9488 10.3654 26.9125C10.3865 27.0383 10.2059 27.3361 10.194 27.5076C10.1187 27.6398 10.3364 27.7822 10.3338 27.7928C10.3281 27.816 10.2137 28.3529 10.206 28.3828C10.1573 28.5562 10.1934 28.7953 10.0809 28.9357C9.93027 29.1234 10.0173 29.401 10.1005 29.6002C10.181 29.7928 9.99953 30.348 10.1267 30.458C10.1259 30.5619 10.0607 30.7615 9.99086 30.8434C9.97527 30.8615 9.94271 30.8588 9.91238 30.8625C10.1811 30.9902 11.5172 31.5574 11.6222 31.6729C11.0165 31.4191 10.417 31.151 9.82412 30.8688Z" fill="url(#paint4_linear_5303_1154)"/>
<path id="Vector_19" d="M9.93602 29.1273C9.98314 29.1951 9.98703 29.3775 9.9773 29.4588C9.89848 29.3354 9.92238 29.2754 9.93602 29.1273Z" fill="var(--fill-0, #3F7AF6)"/>
<path id="Vector_20" d="M10.9392 34.149C11.1041 34.1498 11.5074 34.1295 11.6311 34.2064C11.2068 34.2746 10.0262 34.2736 9.60666 34.2016C9.79471 34.1654 10.6834 34.1607 10.9392 34.149Z" fill="var(--fill-0, #5739AF)"/>
<path id="Vector_21" d="M10.6241 7.88443C10.6094 7.85459 10.596 7.8241 10.584 7.79305C10.5217 7.6291 10.4765 7.35098 10.4538 7.1784C10.3267 6.23539 10.4628 5.27559 10.8471 4.40508C12.1007 1.51771 15.9868 0.553451 18.829 0.631578C19.1089 0.626424 19.4135 0.64208 19.691 0.641795C22.5705 0.638846 25.5307 1.59006 27.6297 3.61781C28.1982 4.16721 29.1555 4.71545 29.8951 5.03623C30.6287 5.269 31.0137 5.33393 31.7773 5.22143C32.027 5.18465 32.6207 5.22859 32.8824 5.27258C32.8197 5.28937 32.7801 5.29885 32.7162 5.30955L32.7023 5.32928C32.718 5.34117 32.9268 5.44193 33.0281 5.51332C33.6488 5.95033 33.9732 6.54043 34.0795 7.28775C34.1324 7.6592 34.1387 8.54988 33.9797 8.90131C33.9064 8.78922 33.651 8.7124 33.5228 8.66092C32.2604 8.15332 30.8383 8.7659 29.5797 8.98867C28.0279 9.26332 26.4463 9.07838 25.0201 8.40424C24.5094 8.16219 23.926 7.74621 23.459 7.42877C23.2557 7.31758 23.04 7.14994 22.8295 7.03107C22.3301 6.74896 21.6479 6.46545 21.0879 6.31861C19.308 5.85184 17.1857 5.68838 15.4108 6.25605C15.1007 6.35525 14.8254 6.51457 14.5491 6.67508C13.7027 6.87242 12.8638 7.0218 12.0462 7.31742C11.9106 7.36645 11.7072 7.4023 11.5922 7.47457L11.586 7.48703L11.6178 7.48826C11.6553 7.48988 11.7554 7.49324 11.7947 7.51428C12.4337 7.85643 13.053 8.26436 13.5956 8.74648C13.6024 8.75738 13.6093 8.76828 13.6162 8.77918C13.5229 8.77371 13.2733 8.53285 13.1709 8.45459C12.7348 8.12162 12.2073 7.76461 11.7165 7.52373C11.3355 7.58385 10.9897 7.77977 10.6433 7.94018C9.6392 8.40518 8.64197 8.89406 7.68529 9.45092C7.65256 9.46998 7.62506 9.46682 7.58934 9.46346C7.72535 9.37082 7.98684 9.23313 8.13654 9.14697C8.93889 8.68531 9.80447 8.3158 10.6241 7.88443Z" fill="url(#paint5_linear_5303_1154)"/>
<path id="Vector_22" d="M29.8951 5.03623C30.6287 5.269 31.0137 5.33393 31.7773 5.22143C32.027 5.18465 32.6207 5.22859 32.8824 5.27258C32.8197 5.28938 32.7801 5.29885 32.7162 5.30955L32.7023 5.32928C32.718 5.34117 32.9268 5.44193 33.0281 5.51332C33.6488 5.95033 33.9732 6.54043 34.0795 7.28775C34.1324 7.6592 34.1387 8.54988 33.9797 8.90131C33.9064 8.78922 33.651 8.7124 33.5229 8.66092C32.2604 8.15332 30.8383 8.7659 29.5797 8.98867C28.0279 9.26332 26.4463 9.07838 25.0201 8.40424C24.5094 8.16219 23.926 7.74621 23.459 7.42877C23.5375 7.42615 23.7115 7.50852 23.8225 7.53732C24.6775 7.75916 25.4416 7.944 26.3369 7.84816C27.0312 7.77387 27.8418 7.49244 28.3637 7.021C28.9529 6.48881 29.4107 5.90096 30.1773 5.58992C30.2986 5.54072 30.4703 5.44438 30.5883 5.39617C30.6426 5.374 30.7588 5.3826 30.8236 5.31516C30.5631 5.22268 30.1045 5.22506 29.8951 5.03623Z" fill="var(--fill-0, #5739AF)"/>
<path id="Vector_23" d="M13.6162 8.77918C13.6093 8.76828 13.6024 8.75738 13.5956 8.74648C13.053 8.26436 12.4337 7.85643 11.7947 7.51428C11.7554 7.49324 11.6553 7.48988 11.6178 7.48826L11.586 7.48703L11.5922 7.47457C11.7072 7.4023 11.9106 7.36645 12.0462 7.31742C12.8638 7.0218 13.7027 6.87242 14.5491 6.67508C14.5899 6.71666 14.6079 6.72316 14.685 6.71789C15.1125 6.68863 15.5344 6.66293 15.9639 6.68172C17.8353 6.74506 19.6229 7.47361 21.0055 8.7365C21.6672 9.33975 22.1937 10.0145 22.6799 10.7593C23.7477 12.3949 24.4047 14.289 25.6041 15.8423C25.8896 16.2119 26.5002 16.8438 26.9 17.0877C26.8051 17.1845 26.6334 17.2868 26.5168 17.3865C26.1576 17.6931 25.8023 18.0043 25.4512 18.3201C24.5137 19.1606 23.6078 20.0359 22.7355 20.9441C22.6236 20.8045 22.366 20.6277 22.2236 20.4869C19.96 18.2467 19.2391 14.6212 16.244 13.1094C14.985 12.4738 13.4117 12.3764 12.0713 12.8127L12.0117 12.7912L12.0182 12.7659C12.1176 12.7235 12.2144 12.6766 12.3069 12.6205C12.7698 12.3403 13.2419 12.0371 13.7282 11.7991C14.1925 11.5736 14.6724 11.382 15.1643 11.2259C15.4648 11.1329 15.7582 11.0717 16.057 10.9659C15.6382 10.6506 15.2078 10.1881 14.8138 9.81898C14.4084 9.4391 14.0407 9.13582 13.6162 8.77918Z" fill="var(--fill-0, #5B4AC2)"/>
</g>
<defs>
<linearGradient id="paint0_linear_5303_1154" x1="23.3697" y1="11.7412" x2="31.6373" y2="23.6727" gradientUnits="userSpaceOnUse">
<stop stop-color="#5255F7"/>
<stop offset="1" stop-color="#5471F8"/>
</linearGradient>
<linearGradient id="paint1_linear_5303_1154" x1="29.4932" y1="24.2867" x2="33.2326" y2="34.3814" gradientUnits="userSpaceOnUse">
<stop stop-color="#25A3F7"/>
<stop offset="1" stop-color="#00F7FE"/>
</linearGradient>
<linearGradient id="paint2_linear_5303_1154" x1="34.6945" y1="27.9613" x2="33.6859" y2="35.342" gradientUnits="userSpaceOnUse">
<stop stop-color="#1584A9"/>
<stop offset="1" stop-color="#059CBC"/>
</linearGradient>
<linearGradient id="paint3_linear_5303_1154" x1="15.0635" y1="31.8957" x2="4.31822" y2="11.1317" gradientUnits="userSpaceOnUse">
<stop stop-color="#514AC4"/>
<stop offset="1" stop-color="#BA5AFB"/>
</linearGradient>
<linearGradient id="paint4_linear_5303_1154" x1="5.2052" y1="22.6391" x2="13.864" y2="24.4922" gradientUnits="userSpaceOnUse">
<stop stop-color="#1953B0"/>
<stop offset="1" stop-color="#4575E8"/>
</linearGradient>
<linearGradient id="paint5_linear_5303_1154" x1="21.2648" y1="8.98494" x2="19.2632" y2="0.192736" gradientUnits="userSpaceOnUse">
<stop stop-color="#8D50DF"/>
<stop offset="1" stop-color="#B359F8"/>
</linearGradient>
<clipPath id="clip0_5303_1154">
<rect width="40" height="40" fill="white"/>
</clipPath>
</defs>
</svg>
