<svg preserveAspectRatio="none" width="100%" height="100%" overflow="visible" style="display: block;" viewBox="0 0 20 20" fill="none" xmlns="http://www.w3.org/2000/svg">
<g id="material-symbols:call-outline-sharp">
<path id="Vector" d="M16.625 17.5C14.8889 17.5 13.1703 17.125 11.4692 16.375C9.76805 15.625 8.22278 14.5556 6.83333 13.1667C5.44389 11.7778 4.37444 10.2361 3.625 8.54167C2.87556 6.84722 2.50056 5.125 2.5 3.375V2.5H7.41667L8.1875 6.6875L5.8125 9.08333C6.11806 9.625 6.45833 10.1389 6.83333 10.625C7.20833 11.1111 7.61111 11.5625 8.04167 11.9792C8.44444 12.3819 8.88556 12.7675 9.365 13.1358C9.84444 13.5042 10.3617 13.8478 10.9167 14.1667L13.3333 11.75L17.5 12.6042V17.5H16.625ZM5.02083 7.5L6.39583 6.125L6.04167 4.16667H4.1875C4.25694 4.79167 4.36111 5.37861 4.5 5.9275C4.63889 6.47639 4.8125 7.00056 5.02083 7.5ZM12.4792 14.9583C13.0347 15.1944 13.5939 15.3819 14.1567 15.5208C14.7194 15.6597 15.2783 15.75 15.8333 15.7917V13.9583L13.875 13.5625L12.4792 14.9583Z" fill="var(--fill-0, black)" fill-opacity="0.6"/>
</g>
</svg>
