<svg preserveAspectRatio="none" width="100%" height="100%" overflow="visible" style="display: block;" viewBox="0 0 20 20" fill="none" xmlns="http://www.w3.org/2000/svg">
<g id="material-symbols:star-rounded">
<path id="Vector" d="M10.0003 14.3958L6.54194 16.4792C6.38916 16.5764 6.22944 16.6181 6.06277 16.6042C5.89611 16.5903 5.75027 16.5347 5.62527 16.4375C5.50027 16.3403 5.40305 16.2189 5.33361 16.0733C5.26416 15.9278 5.25027 15.7644 5.29194 15.5833L6.20861 11.6458L3.14611 9C3.00722 8.875 2.92055 8.7325 2.88611 8.5725C2.85166 8.4125 2.86194 8.25639 2.91694 8.10417C2.97194 7.95195 3.05527 7.82695 3.16694 7.72917C3.27861 7.63139 3.43139 7.56889 3.62527 7.54167L7.66694 7.1875L9.22944 3.47917C9.29888 3.31251 9.40666 3.1875 9.55277 3.10417C9.69889 3.02084 9.84805 2.97917 10.0003 2.97917C10.1525 2.97917 10.3017 3.02084 10.4478 3.10417C10.5939 3.1875 10.7017 3.31251 10.7711 3.47917L12.3336 7.1875L16.3753 7.54167C16.5697 7.56945 16.7225 7.63195 16.8336 7.72917C16.9447 7.82639 17.0281 7.95139 17.0836 8.10417C17.1392 8.25695 17.1497 8.41334 17.1153 8.57334C17.0808 8.73334 16.9939 8.87556 16.8544 9L13.7919 11.6458L14.7086 15.5833C14.7503 15.7639 14.7364 15.9272 14.6669 16.0733C14.5975 16.2194 14.5003 16.3408 14.3753 16.4375C14.2503 16.5342 14.1044 16.5897 13.9378 16.6042C13.7711 16.6186 13.6114 16.5769 13.4586 16.4792L10.0003 14.3958Z" fill="var(--fill-0, #1FBD5C)"/>
</g>
</svg>
