<svg preserveAspectRatio="none" width="100%" height="100%" overflow="visible" style="display: block;" viewBox="0 0 16 15" fill="none" xmlns="http://www.w3.org/2000/svg">
<path id="Vector" d="M7.21312 8.01288L6.12646 6.96881C5.98907 6.83448 5.81746 6.76732 5.61162 6.76732C5.40578 6.76732 5.22767 6.84059 5.07728 6.98712C4.93989 7.12145 4.87119 7.29241 4.87119 7.5C4.87119 7.70759 4.93989 7.87855 5.07728 8.01288L6.68853 9.58814C6.83841 9.73468 7.01327 9.80795 7.21312 9.80795C7.41296 9.80795 7.58782 9.73468 7.73771 9.58814L10.9227 6.47425C11.0726 6.32771 11.1443 6.15675 11.1378 5.96137C11.1313 5.76599 11.0596 5.59503 10.9227 5.44849C10.7728 5.30195 10.595 5.22576 10.3891 5.21989C10.1833 5.21403 10.0052 5.28413 9.8548 5.43017L7.21312 8.01288ZM5.11475 14.6436L4.0281 12.8486L1.96721 12.409C1.77986 12.3723 1.62998 12.2778 1.51756 12.1254C1.40515 11.973 1.36144 11.805 1.38642 11.6213L1.59251 9.55151L0.187354 7.97624C0.0624512 7.84192 0 7.68317 0 7.5C0 7.31683 0.0624512 7.15808 0.187354 7.02376L1.59251 5.44849L1.38642 3.37866C1.36144 3.19549 1.40515 3.02747 1.51756 2.87458C1.62998 2.72169 1.77986 2.62718 1.96721 2.59103L4.0281 2.15142L5.11475 0.356353C5.21468 0.197605 5.35207 0.0906333 5.52693 0.0354379C5.7018 -0.0197574 5.87666 -0.0104768 6.05152 0.0632798L8 0.86923L9.94848 0.0632798C10.1233 -0.00998835 10.2982 -0.019269 10.4731 0.0354379C10.6479 0.0901448 10.7853 0.197116 10.8852 0.356353L11.9719 2.15142L14.0328 2.59103C14.2201 2.62767 14.37 2.72243 14.4824 2.87531C14.5948 3.0282 14.6386 3.19598 14.6136 3.37866L14.4075 5.44849L15.8126 7.02376C15.9375 7.15808 16 7.31683 16 7.5C16 7.68317 15.9375 7.84192 15.8126 7.97624L14.4075 9.55151L14.6136 11.6213C14.6386 11.8045 14.5948 11.9725 14.4824 12.1254C14.37 12.2783 14.2201 12.3728 14.0328 12.409L11.9719 12.8486L10.8852 14.6436C10.7853 14.8024 10.6479 14.9094 10.4731 14.9646C10.2982 15.0198 10.1233 15.0105 9.94848 14.9367L8 14.1308L6.05152 14.9367C5.87666 15.01 5.7018 15.0193 5.52693 14.9646C5.35207 14.9099 5.21468 14.8029 5.11475 14.6436Z" fill="var(--fill-0, #4C9EFF)"/>
</svg>
