<svg preserveAspectRatio="none" width="100%" height="100%" overflow="visible" style="display: block;" viewBox="0 0 20 20" fill="none" xmlns="http://www.w3.org/2000/svg">
<g id="fluent:ios-arrow-24-filled">
<path id="Vector" d="M10.6058 3.0725C10.681 2.99294 10.7398 2.89935 10.7788 2.79708C10.8178 2.6948 10.8363 2.58585 10.8332 2.47643C10.8301 2.36701 10.8055 2.25927 10.7608 2.15937C10.716 2.05946 10.6521 1.96935 10.5725 1.89417C10.4929 1.81898 10.3994 1.76021 10.2971 1.7212C10.1948 1.68218 10.0858 1.6637 9.97643 1.66679C9.86701 1.66989 9.75927 1.6945 9.65937 1.73924C9.55946 1.78397 9.46935 1.84794 9.39417 1.9275L2.31083 9.4275C2.16455 9.58222 2.08305 9.78707 2.08305 10C2.08305 10.2129 2.16455 10.4178 2.31083 10.5725L9.39417 18.0733C9.46885 18.1546 9.55895 18.2203 9.65922 18.2665C9.75949 18.3127 9.86794 18.3385 9.97827 18.3424C10.0886 18.3463 10.1986 18.3283 10.3019 18.2893C10.4052 18.2504 10.4997 18.1913 10.58 18.1155C10.6603 18.0397 10.7247 17.9487 10.7695 17.8478C10.8143 17.7469 10.8386 17.6381 10.841 17.5277C10.8434 17.4173 10.8238 17.3076 10.7835 17.2048C10.7431 17.1021 10.6827 17.0084 10.6058 16.9292L4.0625 10L10.6058 3.0725Z" fill="var(--fill-0, white)" fill-opacity="0.6"/>
</g>
</svg>
