<svg preserveAspectRatio="none" width="100%" height="100%" overflow="visible" style="display: block;" viewBox="0 0 24 24" fill="none" xmlns="http://www.w3.org/2000/svg">
<g id="material-symbols:labs-outline">
<path id="Vector" d="M12 22C10.6167 22 9.43767 21.5123 8.463 20.537C7.48833 19.5617 7.00067 18.3827 7 17V8C6.45 8 5.97933 7.80433 5.588 7.413C5.19667 7.02167 5.00067 6.55067 5 6V4C5 3.45 5.196 2.97933 5.588 2.588C5.98 2.19667 6.45067 2.00067 7 2H17C17.55 2 18.021 2.196 18.413 2.588C18.805 2.98 19.0007 3.45067 19 4V6C19 6.55 18.8043 7.021 18.413 7.413C18.0217 7.805 17.5507 8.00067 17 8V17C17 18.3833 16.5123 19.5627 15.537 20.538C14.5617 21.5133 13.3827 22.0007 12 22ZM7 6H17V4H7V6ZM12 20C12.8333 20 13.5417 19.7083 14.125 19.125C14.7083 18.5417 15 17.8333 15 17H12V15H15V13H12V11H15V8H9V17C9 17.8333 9.29167 18.5417 9.875 19.125C10.4583 19.7083 11.1667 20 12 20Z" fill="var(--fill-0, black)" fill-opacity="0.8"/>
</g>
</svg>
