<svg preserveAspectRatio="none" width="100%" height="100%" overflow="visible" style="display: block;" viewBox="0 0 8 9" fill="none" xmlns="http://www.w3.org/2000/svg">
<g id="Icon">
<path id="Shape" fill-rule="evenodd" clip-rule="evenodd" d="M4 0C1.81403 0.0505814 0.0549527 1.66973 0 3.68182C0.037087 4.27672 0.215341 4.85692 0.522222 5.38159L0.553333 5.43273C2.97111 9 3.69333 9 4 9C4.48 9 4.99778 8.68909 6.22222 7.10386C6.86444 6.28568 7.41556 5.4675 7.43778 5.43068L7.46889 5.38159C7.77887 4.85758 7.96017 4.27735 8 3.68182C7.94505 1.66973 6.18597 0.0505814 4 0V0ZM6.88931 5.11363C6.88931 5.11363 4.66709 8.38636 4.00042 8.38636C3.33376 8.38636 1.11153 5.11363 1.11153 5.11363C0.853188 4.67136 0.701588 4.18296 0.66709 3.68182C0.66709 1.98731 2.15947 0.613635 4.00042 0.613635C5.84137 0.613635 7.33376 1.98731 7.33376 3.68182C7.2972 4.18343 7.14331 4.67185 6.88265 5.11363H6.88931Z" fill="var(--fill-0, black)"/>
<path id="Shape_2" fill-rule="evenodd" clip-rule="evenodd" d="M3.99965 1.84091C3.01781 1.84091 2.22187 2.57353 2.22187 3.47727C2.22187 4.38101 3.01781 5.11364 3.99965 5.11364C4.98149 5.11364 5.77743 4.38101 5.77743 3.47727C5.77743 2.57353 4.98149 1.84091 3.99965 1.84091ZM4.00027 4.5C3.38662 4.5 2.88916 4.04211 2.88916 3.47727C2.88916 2.91243 3.38662 2.45454 4.00027 2.45454C4.61392 2.45454 5.11138 2.91243 5.11138 3.47727C5.11138 4.04211 4.61392 4.5 4.00027 4.5Z" fill="var(--fill-0, black)"/>
</g>
</svg>
