<svg preserveAspectRatio="none" width="100%" height="100%" overflow="visible" style="display: block;" viewBox="0 0 16 16" fill="none" xmlns="http://www.w3.org/2000/svg">
<g id="material-symbols:video-call-outline-rounded">
<path id="Vector" d="M6.00065 8.66663V9.99996C6.00065 10.1888 6.06465 10.3473 6.19265 10.4753C6.32065 10.6033 6.47887 10.6671 6.66732 10.6666C6.85576 10.6662 7.01421 10.6022 7.14265 10.4746C7.2711 10.3471 7.33487 10.1888 7.33398 9.99996V8.66663H8.66732C8.85621 8.66663 9.01465 8.60263 9.14265 8.47463C9.27065 8.34663 9.33443 8.1884 9.33398 7.99996C9.33354 7.81152 9.26954 7.65329 9.14198 7.52529C9.01443 7.39729 8.85621 7.33329 8.66732 7.33329H7.33398V5.99996C7.33398 5.81107 7.26998 5.65285 7.14198 5.52529C7.01398 5.39774 6.85576 5.33374 6.66732 5.33329C6.47887 5.33285 6.32065 5.39685 6.19265 5.52529C6.06465 5.65374 6.00065 5.81196 6.00065 5.99996V7.33329H4.66732C4.47843 7.33329 4.32021 7.39729 4.19265 7.52529C4.0651 7.65329 4.0011 7.81152 4.00065 7.99996C4.00021 8.1884 4.06421 8.34685 4.19265 8.47529C4.3211 8.60374 4.47932 8.66752 4.66732 8.66663H6.00065ZM2.66732 13.3333C2.30065 13.3333 1.98687 13.2028 1.72598 12.942C1.4651 12.6811 1.33443 12.3671 1.33398 12V3.99996C1.33398 3.63329 1.46465 3.31951 1.72598 3.05863C1.98732 2.79774 2.3011 2.66707 2.66732 2.66663H10.6673C11.034 2.66663 11.348 2.79729 11.6093 3.05863C11.8707 3.31996 12.0011 3.63374 12.0007 3.99996V6.99996L14.1007 4.89996C14.2118 4.78885 14.334 4.76107 14.4673 4.81663C14.6007 4.87218 14.6673 4.97774 14.6673 5.13329V10.8666C14.6673 11.0222 14.6007 11.1277 14.4673 11.1833C14.334 11.2388 14.2118 11.2111 14.1007 11.1L12.0007 8.99996V12C12.0007 12.3666 11.8702 12.6806 11.6093 12.942C11.3484 13.2033 11.0344 13.3337 10.6673 13.3333H2.66732ZM2.66732 12H10.6673V3.99996H2.66732V12Z" fill="var(--fill-0, black)" fill-opacity="0.8"/>
</g>
</svg>
