<svg preserveAspectRatio="none" width="100%" height="100%" overflow="visible" style="display: block;" viewBox="0 0 18 20" fill="none" xmlns="http://www.w3.org/2000/svg">
<g id="Group">
<g id="Vector">
</g>
<path id="Vector_2" d="M13.25 5.25C13.25 6.44347 12.7759 7.58807 11.932 8.43198C11.0881 9.27589 9.94347 9.75 8.75 9.75C7.55653 9.75 6.41193 9.27589 5.56802 8.43198C4.72411 7.58807 4.25 6.44347 4.25 5.25C4.25 4.05653 4.72411 2.91193 5.56802 2.06802C6.41193 1.22411 7.55653 0.75 8.75 0.75C9.94347 0.75 11.0881 1.22411 11.932 2.06802C12.7759 2.91193 13.25 4.05653 13.25 5.25ZM16.75 18.75V16.75C16.75 15.6891 16.3286 14.6717 15.5784 13.9216C14.8283 13.1714 13.8109 12.75 12.75 12.75H4.75C3.68913 12.75 2.67172 13.1714 1.92157 13.9216C1.17143 14.6717 0.75 15.6891 0.75 16.75V18.75H16.75Z" stroke="var(--stroke-0, black)" stroke-opacity="0.8" stroke-width="1.5" stroke-linecap="square"/>
</g>
</svg>
