<svg preserveAspectRatio="none" width="100%" height="100%" overflow="visible" style="display: block;" viewBox="0 0 20 20" fill="none" xmlns="http://www.w3.org/2000/svg">
<g id="material-symbols:video-call-outline-rounded">
<path id="Vector" d="M7.50033 10.8333V12.5C7.50033 12.7361 7.58033 12.9342 7.74033 13.0942C7.90033 13.2542 8.0981 13.3339 8.33366 13.3333C8.56921 13.3328 8.76727 13.2528 8.92783 13.0933C9.08838 12.9339 9.1681 12.7361 9.16699 12.5V10.8333H10.8337C11.0698 10.8333 11.2678 10.7533 11.4278 10.5933C11.5878 10.4333 11.6675 10.2356 11.667 10C11.6664 9.76444 11.5864 9.56666 11.427 9.40666C11.2675 9.24666 11.0698 9.16666 10.8337 9.16666H9.16699V7.5C9.16699 7.26388 9.08699 7.06611 8.92699 6.90666C8.76699 6.74722 8.56921 6.66722 8.33366 6.66666C8.0981 6.66611 7.90033 6.74611 7.74033 6.90666C7.58033 7.06722 7.50033 7.265 7.50033 7.5V9.16666H5.83366C5.59755 9.16666 5.39977 9.24666 5.24033 9.40666C5.08088 9.56666 5.00088 9.76444 5.00033 10C4.99977 10.2356 5.07977 10.4336 5.24033 10.5942C5.40088 10.7547 5.59866 10.8344 5.83366 10.8333H7.50033ZM3.33366 16.6667C2.87533 16.6667 2.4831 16.5036 2.15699 16.1775C1.83088 15.8514 1.66755 15.4589 1.66699 15V4.99999C1.66699 4.54166 1.83033 4.14944 2.15699 3.82333C2.48366 3.49722 2.87588 3.33388 3.33366 3.33333H13.3337C13.792 3.33333 14.1845 3.49666 14.5112 3.82333C14.8378 4.14999 15.0009 4.54222 15.0003 4.99999V8.75L17.6253 6.12499C17.7642 5.98611 17.917 5.95138 18.0837 6.02083C18.2503 6.09027 18.3337 6.22222 18.3337 6.41666V13.5833C18.3337 13.7778 18.2503 13.9097 18.0837 13.9792C17.917 14.0486 17.7642 14.0139 17.6253 13.875L15.0003 11.25V15C15.0003 15.4583 14.8373 15.8508 14.5112 16.1775C14.185 16.5042 13.7925 16.6672 13.3337 16.6667H3.33366ZM3.33366 15H13.3337V4.99999H3.33366V15Z" fill="var(--fill-0, black)" fill-opacity="0.6"/>
</g>
</svg>
