<svg preserveAspectRatio="none" width="100%" height="100%" overflow="visible" style="display: block;" viewBox="0 0 8 8" fill="none" xmlns="http://www.w3.org/2000/svg">
<g id="mdi:like">
<path id="Vector" d="M7.66683 3.33333C7.66683 3.15652 7.59659 2.98695 7.47157 2.86192C7.34654 2.7369 7.17697 2.66666 7.00016 2.66666H4.8935L5.2135 1.14333C5.22016 1.10999 5.2235 1.07333 5.2235 1.03666C5.2235 0.899995 5.16683 0.773328 5.07683 0.683328L4.7235 0.333328L2.53016 2.52666C2.40683 2.64999 2.3335 2.81666 2.3335 2.99999V6.33333C2.3335 6.51014 2.40373 6.67971 2.52876 6.80473C2.65378 6.92976 2.82335 7 3.00016 7H6.00016C6.27683 7 6.5135 6.83333 6.6135 6.59333L7.62016 4.24333C7.65016 4.16666 7.66683 4.08666 7.66683 4V3.33333ZM0.333496 7H1.66683V2.99999H0.333496V7Z" fill="var(--fill-0, #22212C)"/>
</g>
</svg>
