<svg preserveAspectRatio="none" width="100%" height="100%" overflow="visible" style="display: block;" viewBox="0 0 19 19" fill="none" xmlns="http://www.w3.org/2000/svg">
<g id="Group">
<path id="Vector" d="M8.42857 2.67105H3.28571C2.67951 2.67105 2.09812 2.91187 1.66947 3.34052C1.24082 3.76918 1 4.35056 1 4.95677V15.2425C1 15.8487 1.24082 16.4301 1.66947 16.8587C2.09812 17.2874 2.67951 17.5282 3.28571 17.5282H14.7143C15.3205 17.5282 15.9019 17.2874 16.3305 16.8587C16.7592 16.4301 17 15.8487 17 15.2425V10.0996" stroke="var(--stroke-0, black)" stroke-opacity="0.8" stroke-width="2" stroke-linecap="round" stroke-linejoin="round"/>
<path id="Vector_2" d="M14.7143 3.81391L15.8034 4.95677M17 1.49048C17.3052 1.80524 17.4743 2.22747 17.4707 2.66589C17.467 3.10432 17.291 3.52369 16.9806 3.83334L9 11.8139L5.57143 12.9568L6.71429 9.5282L14.6994 1.47563C14.9803 1.19297 15.3559 1.0244 15.7537 1.00245C16.1516 0.980499 16.5435 1.10673 16.8537 1.35677L17 1.49048Z" stroke="var(--stroke-0, black)" stroke-opacity="0.8" stroke-width="2" stroke-linecap="round" stroke-linejoin="round"/>
</g>
</svg>
