<svg preserveAspectRatio="none" width="100%" height="100%" overflow="visible" style="display: block;" viewBox="0 0 24 24" fill="none" xmlns="http://www.w3.org/2000/svg">
<g id="ic:round-keyboard-voice">
<path id="Vector" d="M12 15C13.66 15 14.99 13.66 14.99 12L15 6C15 4.34 13.66 3 12 3C10.34 3 9 4.34 9 6V12C9 13.66 10.34 15 12 15ZM18.08 12C17.66 12 17.31 12.3 17.25 12.71C16.88 15.32 14.53 17.1 12 17.1C9.47 17.1 7.12 15.33 6.75 12.71C6.71901 12.5121 6.61834 12.3319 6.46615 12.2017C6.31396 12.0715 6.12027 12 5.92 12C5.4 12 5 12.46 5.07 12.97C5.53 15.94 8.03 18.27 11 18.72V21C11 21.55 11.45 22 12 22C12.55 22 13 21.55 13 21V18.72C15.96 18.29 18.47 15.94 18.93 12.97C18.9461 12.8489 18.9361 12.7258 18.9008 12.6089C18.8654 12.492 18.8055 12.384 18.725 12.2922C18.6445 12.2003 18.5454 12.1268 18.4341 12.0764C18.3229 12.026 18.2021 11.9999 18.08 12Z" fill="var(--fill-0, #E9EAEB)"/>
</g>
</svg>
