<svg preserveAspectRatio="none" width="100%" height="100%" overflow="visible" style="display: block;" viewBox="0 0 1920 1440" fill="none" xmlns="http://www.w3.org/2000/svg">
<g id="Vertical" clip-path="url(#clip0_5303_1118)">
<line id="Line" opacity="0" x1="0.5" x2="0.5" y2="1440" stroke="var(--stroke-0, #E9EAEB)" stroke-opacity="0.08"/>
<line id="Line_2" x1="96.5" x2="96.5" y2="1440" stroke="var(--stroke-0, #E9EAEB)" stroke-opacity="0.08"/>
<line id="Line_3" x1="192.5" x2="192.5" y2="1440" stroke="var(--stroke-0, #E9EAEB)" stroke-opacity="0.08"/>
<line id="Line_4" x1="288.5" x2="288.5" y2="1440" stroke="var(--stroke-0, #E9EAEB)" stroke-opacity="0.08"/>
<line id="Line_5" x1="384.5" x2="384.5" y2="1440" stroke="var(--stroke-0, #E9EAEB)" stroke-opacity="0.08"/>
<line id="Line_6" x1="480.5" x2="480.5" y2="1440" stroke="var(--stroke-0, #E9EAEB)" stroke-opacity="0.08"/>
<line id="Line_7" x1="576.5" x2="576.5" y2="1440" stroke="var(--stroke-0, #E9EAEB)" stroke-opacity="0.08"/>
<line id="Line_8" x1="672.5" x2="672.5" y2="1440" stroke="var(--stroke-0, #E9EAEB)" stroke-opacity="0.08"/>
<line id="Line_9" x1="768.5" x2="768.5" y2="1440" stroke="var(--stroke-0, #E9EAEB)" stroke-opacity="0.08"/>
<line id="Line_10" x1="864.5" x2="864.5" y2="1440" stroke="var(--stroke-0, #E9EAEB)" stroke-opacity="0.08"/>
<line id="Line_11" x1="960.5" x2="960.5" y2="1440" stroke="var(--stroke-0, #E9EAEB)" stroke-opacity="0.08"/>
<line id="Line_12" x1="1056.5" x2="1056.5" y2="1440" stroke="var(--stroke-0, #E9EAEB)" stroke-opacity="0.08"/>
<line id="Line_13" x1="1152.5" x2="1152.5" y2="1440" stroke="var(--stroke-0, #E9EAEB)" stroke-opacity="0.08"/>
<line id="Line_14" x1="1248.5" x2="1248.5" y2="1440" stroke="var(--stroke-0, #E9EAEB)" stroke-opacity="0.08"/>
<line id="Line_15" x1="1344.5" x2="1344.5" y2="1440" stroke="var(--stroke-0, #E9EAEB)" stroke-opacity="0.08"/>
<line id="Line_16" x1="1440.5" x2="1440.5" y2="1440" stroke="var(--stroke-0, #E9EAEB)" stroke-opacity="0.08"/>
<line id="Line_17" x1="1536.5" x2="1536.5" y2="1440" stroke="var(--stroke-0, #E9EAEB)" stroke-opacity="0.08"/>
<line id="Line_18" x1="1632.5" x2="1632.5" y2="1440" stroke="var(--stroke-0, #E9EAEB)" stroke-opacity="0.08"/>
<line id="Line_19" x1="1728.5" x2="1728.5" y2="1440" stroke="var(--stroke-0, #E9EAEB)" stroke-opacity="0.08"/>
<line id="Line_20" x1="1824.5" x2="1824.5" y2="1440" stroke="var(--stroke-0, #E9EAEB)" stroke-opacity="0.08"/>
<line id="Line_21" opacity="0" x1="1920.5" x2="1920.5" y2="1440" stroke="var(--stroke-0, #E9EAEB)" stroke-opacity="0.08"/>
</g>
<defs>
<clipPath id="clip0_5303_1118">
<rect width="1920" height="1440" fill="white"/>
</clipPath>
</defs>
</svg>
