<svg preserveAspectRatio="none" width="100%" height="100%" overflow="visible" style="display: block;" viewBox="0 0 20 22" fill="none" xmlns="http://www.w3.org/2000/svg">
<g id="Group">
<g id="Vector">
</g>
<path id="Vector_2" fill-rule="evenodd" clip-rule="evenodd" d="M10 0C15.523 0 20 4.477 20 10C20 15.523 15.523 20 10 20C4.477 20 0 15.523 0 10C0 4.477 4.477 0 10 0ZM10 2C7.87827 2 5.84344 2.84285 4.34315 4.34315C2.84285 5.84344 2 7.87827 2 10C2 12.1217 2.84285 14.1566 4.34315 15.6569C5.84344 17.1571 7.87827 18 10 18C12.1217 18 14.1566 17.1571 15.6569 15.6569C17.1571 14.1566 18 12.1217 18 10C18 7.87827 17.1571 5.84344 15.6569 4.34315C14.1566 2.84285 12.1217 2 10 2ZM10.01 12.554C10.3688 12.1843 10.8556 11.9661 11.3704 11.9446C11.8851 11.923 12.3885 12.0996 12.777 12.438L12.9 12.554C12.921 12.576 12.95 12.606 12.98 12.578L13.324 12.263C13.5195 12.0837 13.7781 11.9894 14.0431 12.0009C14.3081 12.0123 14.5577 12.1285 14.737 12.324C14.9163 12.5195 15.0106 12.7781 14.9991 13.0431C14.9877 13.3081 14.8715 13.5577 14.676 13.737L14.332 14.052C13.9619 14.391 13.48 14.582 12.9782 14.5885C12.4763 14.5949 11.9897 14.4164 11.611 14.087L11.485 13.968C11.475 13.957 11.455 13.935 11.445 13.946C10.655 14.762 9.345 14.762 8.555 13.946C8.54 13.931 8.524 13.959 8.515 13.968C8.14475 14.3498 7.64019 14.5722 7.10855 14.5879C6.57691 14.6036 6.06012 14.4113 5.668 14.052L5.324 13.737C5.12854 13.5577 5.0123 13.3081 5.00086 13.0431C4.98942 12.7781 5.08371 12.5195 5.263 12.324C5.44229 12.1285 5.69188 12.0123 5.95687 12.0009C6.22186 11.9894 6.48054 12.0837 6.676 12.263L7.019 12.578C7.042 12.599 7.064 12.588 7.083 12.571L7.1 12.554C7.28744 12.3601 7.51196 12.206 7.76021 12.1007C8.00846 11.9954 8.27535 11.9412 8.545 11.9412C8.81465 11.9412 9.08154 11.9954 9.32979 12.1007C9.57804 12.206 9.80256 12.3601 9.99 12.554C9.99122 12.5555 9.99275 12.5567 9.99448 12.5575C9.9962 12.5583 9.99809 12.5587 10 12.5587C10.0019 12.5587 10.0038 12.5583 10.0055 12.5575C10.0073 12.5567 10.0088 12.5555 10.01 12.554ZM6.5 6C6.89782 6 7.27936 6.15804 7.56066 6.43934C7.84196 6.72064 8 7.10218 8 7.5C8 7.89782 7.84196 8.27936 7.56066 8.56066C7.27936 8.84196 6.89782 9 6.5 9C6.10218 9 5.72064 8.84196 5.43934 8.56066C5.15804 8.27936 5 7.89782 5 7.5C5 7.10218 5.15804 6.72064 5.43934 6.43934C5.72064 6.15804 6.10218 6 6.5 6ZM13.5 6C13.8978 6 14.2794 6.15804 14.5607 6.43934C14.842 6.72064 15 7.10218 15 7.5C15 7.89782 14.842 8.27936 14.5607 8.56066C14.2794 8.84196 13.8978 9 13.5 9C13.1022 9 12.7206 8.84196 12.4393 8.56066C12.158 8.27936 12 7.89782 12 7.5C12 7.10218 12.158 6.72064 12.4393 6.43934C12.7206 6.15804 13.1022 6 13.5 6Z" fill="var(--fill-0, white)"/>
</g>
</svg>
