<svg preserveAspectRatio="none" width="100%" height="100%" overflow="visible" style="display: block;" viewBox="0 0 16 16" fill="none" xmlns="http://www.w3.org/2000/svg">
<g id="LockSimple" clip-path="url(#clip0_5368_1059)">
<g id="Vector">
</g>
<path id="Vector_2" d="M13 5.5H3C2.72386 5.5 2.5 5.72386 2.5 6V13C2.5 13.2761 2.72386 13.5 3 13.5H13C13.2761 13.5 13.5 13.2761 13.5 13V6C13.5 5.72386 13.2761 5.5 13 5.5Z" stroke="var(--stroke-0, #111827)" stroke-width="1.2" stroke-linecap="round" stroke-linejoin="round"/>
<path id="Vector_3" d="M5.5 5.5V3.5C5.5 2.83696 5.76339 2.20107 6.23223 1.73223C6.70107 1.26339 7.33696 1 8 1C8.66304 1 9.29893 1.26339 9.76777 1.73223C10.2366 2.20107 10.5 2.83696 10.5 3.5V5.5" stroke="var(--stroke-0, #111827)" stroke-width="1.2" stroke-linecap="round" stroke-linejoin="round"/>
</g>
<defs>
<clipPath id="clip0_5368_1059">
<rect width="16" height="16" fill="white"/>
</clipPath>
</defs>
</svg>
