<svg width="40" height="40" viewBox="0 0 40 40" fill="none" xmlns="http://www.w3.org/2000/svg">
<g clip-path="url(#clip0_5360_697)">
<path d="M32.8825 5.27258C33.2378 5.27657 33.4815 5.32573 33.8331 5.38829C35.4569 5.66977 36.9517 6.45356 38.1067 7.62928C38.4315 7.96241 38.6188 8.25495 38.8808 8.6359C39.7749 9.93551 40.0462 11.4749 39.8409 13.0221C39.8202 13.1789 39.7403 13.4544 39.7349 13.5928C39.5882 14.0513 39.4655 14.4565 39.2569 14.9014C38.8185 15.8366 38.0896 16.7191 37.2919 17.3729C36.9095 17.6864 36.2175 18.0833 35.7864 18.3079C34.9806 18.7276 34.1728 19.1321 33.4022 19.6184C33.2265 19.7293 32.8606 19.9383 32.7177 20.0645C32.6411 20.0981 32.6325 20.1068 32.5657 20.1602C32.6669 20.209 33.178 20.3477 33.32 20.3932C33.7831 20.5393 34.2333 20.7236 34.6659 20.9443C35.2386 21.235 35.8913 21.6678 36.3722 22.0969C36.5995 22.2506 36.7667 22.4395 36.956 22.6322C37.8464 23.5389 38.5341 24.8106 38.7763 26.0629C38.8081 26.2299 38.8351 26.3977 38.8573 26.5662C38.9036 27.0176 38.9185 27.3533 38.8847 27.8086C38.8657 28.1805 38.8591 28.4313 38.7874 28.7955C38.7782 29.0594 38.6606 29.5578 38.5923 29.8115C38.1073 31.6098 37.0304 33.3625 35.7661 34.7193C35.5979 34.8998 35.3792 35.1582 35.2013 35.3209C34.2118 36.2256 32.8333 37.3354 31.637 37.9231C31.5251 38.001 31.286 38.124 31.1587 38.1893C30.0118 38.7772 28.7513 39.1936 27.4858 39.4309C27.1106 39.5012 26.4489 39.5537 26.0646 39.5586C25.5755 39.5648 24.7767 39.5434 24.3036 39.4586C23.0255 39.2295 21.7255 38.6664 20.7044 37.8627C19.8985 37.2285 19.2245 36.4928 18.4689 35.8262C17.5102 34.9805 16.4534 34.2973 15.4075 33.5797C15.247 33.5147 15.2471 33.4998 15.0882 33.5816C14 33.9352 12.7694 34.1195 11.6312 34.2065C11.5075 34.1295 11.1042 34.1498 10.9393 34.149C10.7488 33.9387 10.1231 32.1357 10.0087 31.7732C9.96371 31.6305 9.85408 31.0475 9.82422 30.8688C10.4171 31.151 11.0166 31.4191 11.6223 31.6729C11.5173 31.5574 10.1812 30.9902 9.91248 30.8625C9.94281 30.8588 9.97537 30.8615 9.99096 30.8434C10.0608 30.7615 10.126 30.5619 10.1268 30.458C9.99963 30.348 10.1811 29.7928 10.1006 29.6002C10.0174 29.401 9.93037 29.1234 10.081 28.9357C10.1935 28.7953 10.1574 28.5563 10.2061 28.3828C10.2138 28.3529 10.3282 27.816 10.3339 27.7928C10.3365 27.7822 10.1188 27.6399 10.1941 27.5076C10.206 27.3361 10.3866 27.0383 10.3654 26.9125C10.3089 26.9488 10.3304 26.9428 10.2684 26.9563C10.2418 26.8342 10.4045 26.69 10.4263 26.5326C10.3909 26.5576 10.3856 26.5623 10.3462 26.5793C10.3287 26.451 10.783 26.2133 10.8505 26.083C10.8823 26.0217 11.0585 25.8221 11.1137 25.7574L11.1345 25.7561C11.1164 25.8459 11.0777 25.8693 11.0538 25.9459L11.0724 25.9553C11.1216 25.8996 11.214 25.7986 11.241 25.7313C11.2684 25.6633 11.2063 25.6949 11.1752 25.6232C11.2163 25.59 11.1928 25.5979 11.2456 25.5998C11.2997 25.64 11.3339 25.674 11.3996 25.6875C11.4963 25.6346 11.3906 25.6658 11.4569 25.5639L11.5126 25.5738C11.4991 25.6145 11.501 25.5949 11.5038 25.632C11.6478 25.6449 11.6325 25.5258 11.7686 25.5297C11.7887 25.5752 11.7925 25.5883 11.8216 25.6279L11.8654 25.6156C12.0484 25.359 12.1737 25.56 12.3893 25.6006C12.6858 25.6563 12.8467 25.8232 13.1251 25.9217C13.2784 25.9758 13.466 26.0033 13.6269 26.0592C13.7836 26.1137 13.9374 26.1734 14.093 26.2309C14.1832 26.2553 14.2512 26.2414 14.3415 26.276C14.5595 26.3592 14.8308 26.5688 15.0608 26.5918C15.5204 26.7906 15.9755 27.0203 16.4237 27.2438C16.5068 27.1938 16.5861 27.1141 16.68 27.0604C19.2692 25.5828 20.6815 23.0313 22.7356 20.9441C23.6079 20.0359 24.5138 19.1606 25.4513 18.3201C25.8024 18.0043 26.1577 17.6931 26.5169 17.3865C26.6335 17.2868 26.8052 17.1845 26.9001 17.0877C27.0245 16.9833 27.1644 16.8844 27.2911 16.7837C29.7261 14.8488 32.4749 12.9404 33.6642 9.93739C33.7993 9.59598 33.8837 9.25975 33.9798 8.90131C34.1388 8.54989 34.1325 7.6592 34.0796 7.28776C33.9733 6.54043 33.6489 5.95034 33.0282 5.51333C32.9269 5.44194 32.7181 5.34118 32.7024 5.32928L32.7163 5.30956C32.7802 5.29885 32.8198 5.28938 32.8825 5.27258ZM24.0522 31.9898C24.2331 31.9688 24.5524 31.9969 24.7499 31.9787C25.0604 31.9502 25.3855 31.9148 25.6944 31.8752C26.1487 31.7701 26.4692 31.7047 26.9245 31.5637C26.9644 31.5461 27.0884 31.51 27.1358 31.4945C27.3749 31.4147 27.7462 31.2496 27.9886 31.1481C28.0526 31.1109 28.1499 31.0697 28.2194 31.0369C28.6271 30.8441 29.0079 30.6227 29.3942 30.3904C30.1007 29.9658 30.3876 29.7066 30.9696 29.1197C31.58 28.5223 32.1626 27.5963 32.3579 26.7592C32.6575 25.8176 32.3782 24.7746 31.7151 24.0598L31.5966 23.9481C31.4597 23.8158 31.2882 23.7203 31.1261 23.6231C30.4394 23.2113 29.7028 23.1555 28.9216 23.1826C28.8046 23.1857 28.7819 23.1916 28.6688 23.2242C28.5128 23.374 28.3171 23.5342 28.172 23.6832C27.4444 24.4297 26.7067 25.2061 26.0442 26.0106C25.6165 26.5377 25.1919 27.0672 24.7704 27.5992C24.3896 28.0838 24.1062 28.4824 23.6747 28.9398C23.2769 29.3615 22.9417 29.6889 22.4755 30.049C22.3263 30.1645 21.9169 30.4522 21.8198 30.5609L21.8921 30.5967C22.1661 30.8211 23.4093 31.8772 23.5995 31.9494C23.7327 32.0002 23.9097 31.9723 24.0522 31.9898Z" fill="#1FA1ED"/>
<path d="M32.8822 5.27258C33.2375 5.27657 33.4812 5.32573 33.8328 5.38829C35.4566 5.66977 36.9513 6.45356 38.1064 7.62928C38.4312 7.96241 38.6185 8.25495 38.8804 8.6359C39.7746 9.93551 40.0459 11.4749 39.8406 13.0221C39.8199 13.1789 39.74 13.4544 39.7345 13.5928C39.5879 14.0513 39.4652 14.4565 39.2566 14.9014C38.8181 15.8366 38.0892 16.7191 37.2916 17.3729C36.9091 17.6864 36.2171 18.0833 35.7861 18.3079C34.9802 18.7276 34.1724 19.1321 33.4019 19.6184C33.2261 19.7293 32.8603 19.9383 32.7173 20.0645C32.6408 20.0981 32.6322 20.1068 32.5654 20.1602C32.4375 20.2049 32.2406 20.3578 32.124 20.443C31.0414 21.234 29.9414 22.025 28.9535 22.934C28.8619 23.0182 28.7742 23.1064 28.6804 23.1877L28.6685 23.2242C28.5125 23.374 28.3168 23.5342 28.1716 23.6832C27.4441 24.4297 26.7064 25.2061 26.0439 26.0106C25.6162 26.5377 25.1916 27.0672 24.7701 27.5992C24.3892 28.0838 24.1058 28.4824 23.6744 28.9398C23.2765 29.3615 22.9414 29.6889 22.4752 30.049C22.3259 30.1645 21.9166 30.4522 21.8195 30.5609C21.6888 30.5094 21.2822 30.177 21.1441 30.0711C20.5002 29.5772 19.8513 29.1688 19.1592 28.7484C18.6481 28.4324 18.1284 28.1305 17.6007 27.8428C17.4485 27.7615 16.467 27.3086 16.4233 27.2438C16.5065 27.1938 16.5857 27.1141 16.6796 27.0604C19.2689 25.5828 20.6812 23.0313 22.7353 20.9441C23.6076 20.0359 24.5134 19.1606 25.4509 18.3201C25.8021 18.0043 26.1574 17.6931 26.5166 17.3865C26.6332 17.2868 26.8048 17.1845 26.8998 17.0877C27.0242 16.9833 27.164 16.8844 27.2908 16.7837C29.7257 14.8488 32.4746 12.9404 33.6638 9.93739C33.799 9.59598 33.8834 9.25975 33.9795 8.90131C34.1384 8.54989 34.1322 7.6592 34.0793 7.28776C33.973 6.54043 33.6486 5.95034 33.0279 5.51333C32.9265 5.44194 32.7177 5.34118 32.7021 5.32928L32.716 5.30956C32.7798 5.29885 32.8195 5.28938 32.8822 5.27258Z" fill="url(#paint0_linear_5360_697)"/>
<path d="M28.6686 23.2242L28.6805 23.1877C28.7742 23.1064 28.8619 23.0182 28.9535 22.934C29.9414 22.025 31.0414 21.234 32.124 20.443C32.2406 20.3578 32.4375 20.2049 32.5654 20.1602C32.6666 20.209 33.1777 20.3477 33.3197 20.3932C33.7828 20.5393 34.233 20.7236 34.6656 20.9443C35.2383 21.235 35.891 21.6678 36.3719 22.0969C36.5992 22.2506 36.7664 22.4395 36.9557 22.6322C37.8461 23.5389 38.5338 24.8105 38.776 26.0629C38.8078 26.2299 38.8348 26.3977 38.857 26.5662C38.9033 27.0176 38.9182 27.3533 38.8844 27.8086C38.8654 28.1805 38.8588 28.4313 38.7871 28.7955C38.7641 28.7164 38.7699 28.6236 38.7693 28.5396C38.7439 28.6248 38.7346 28.6912 38.6996 28.7746L38.6789 28.7354C38.3537 30 37.7359 31.1703 36.8754 32.1523C36.7096 32.3439 36.3496 32.7193 36.1348 32.8469C35.9396 33.0648 35.157 33.5811 34.8961 33.7016C34.857 33.7244 34.8264 33.7432 34.7854 33.7633C34.4889 33.9723 33.526 34.3389 33.1578 34.4238C32.9568 34.498 32.5527 34.5826 32.3354 34.6211C30.8814 34.8779 29.5344 34.7557 28.1164 34.3709C27.6969 34.257 27.3363 34.1016 26.9314 33.9678C26.725 33.8563 26.3736 33.7064 26.1752 33.6109C25.8117 33.4361 23.8109 32.3188 23.6973 32.024L24.052 31.9898C24.2328 31.9688 24.5521 31.9969 24.7496 31.9787C25.0602 31.9502 25.3852 31.9148 25.6941 31.8752C26.1484 31.7701 26.4689 31.7047 26.9242 31.5637C26.9641 31.5461 27.0881 31.51 27.1355 31.4945C27.3746 31.4146 27.7459 31.2496 27.9883 31.148C28.0523 31.1109 28.1496 31.0697 28.2191 31.0369C28.6268 30.8441 29.0076 30.6227 29.3939 30.3904C30.1004 29.9658 30.3873 29.7066 30.9693 29.1197C31.5797 28.5223 32.1623 27.5963 32.3576 26.7592C32.6572 25.8176 32.3779 24.7746 31.7148 24.0598L31.5963 23.948C31.4594 23.8158 31.2879 23.7203 31.1258 23.623C30.4391 23.2113 29.7025 23.1555 28.9213 23.1826C28.8043 23.1857 28.7816 23.1916 28.6686 23.2242Z" fill="url(#paint1_linear_5360_697)"/>
<path d="M28.6689 23.2242L28.6809 23.1877C28.7746 23.1064 28.8623 23.0182 28.9539 22.934C29.9418 22.025 31.0418 21.234 32.1244 20.443C32.241 20.3578 32.4379 20.2049 32.5658 20.1602C32.667 20.209 33.1781 20.3477 33.3201 20.3932C33.7832 20.5393 34.2334 20.7236 34.666 20.9443C35.2387 21.235 35.8914 21.6678 36.3723 22.0969C36.1729 22.0955 35.873 22.0934 35.6762 22.1367C34.7607 22.3383 33.7621 22.625 32.9277 23.0451C32.6314 23.1979 32.3463 23.3717 32.075 23.5652C31.9791 23.633 31.6932 23.8086 31.6682 23.9027C31.6873 23.9594 31.6998 24.002 31.7152 24.0598L31.5967 23.948C31.4598 23.8158 31.2883 23.7203 31.1262 23.623C30.4395 23.2113 29.7029 23.1555 28.9217 23.1826C28.8047 23.1857 28.782 23.1916 28.6689 23.2242Z" fill="#5B4AC2"/>
<path d="M29.3942 30.3904L29.5196 30.3832C29.3235 30.499 29.0827 30.6408 28.8964 30.7705C28.703 30.8611 28.644 30.856 28.5728 31.0408C28.3702 31.2054 27.8163 31.4873 27.5583 31.5138C27.1923 31.5515 27.2528 31.4812 26.8813 31.6377L26.9245 31.5636C26.9644 31.5461 27.0884 31.5099 27.1358 31.4945C27.3749 31.4146 27.7462 31.2496 27.9886 31.148C28.0526 31.1109 28.1499 31.0697 28.2194 31.0369C28.6271 30.8441 29.0079 30.6226 29.3942 30.3904Z" fill="#23C5E3"/>
<path d="M27.9885 31.1481C27.968 31.1998 27.9662 31.1971 27.9266 31.2375L27.9395 31.235C27.777 31.3682 27.3445 31.4944 27.1357 31.4946C27.3748 31.4147 27.7461 31.2496 27.9885 31.1481Z" fill="#2CB8DF"/>
<path d="M34.8965 33.7016C34.975 33.5787 35.134 33.5746 35.2647 33.4489C35.2004 33.3873 35.1744 33.3912 35.1576 33.3217C35.3818 32.8774 35.6916 32.9324 35.9512 32.6336L35.9697 32.6119C36.0301 32.6199 36.0066 32.6188 36.0666 32.6645C36.0352 32.7311 35.9695 32.7539 35.8953 32.8112C35.8682 32.8805 35.8689 32.8754 35.8719 32.9498C35.9604 33.009 36.0025 32.8514 36.1352 32.8469C35.94 33.0649 35.1574 33.5811 34.8965 33.7016Z" fill="#12E7F9"/>
<path d="M29.394 30.3905C30.1005 29.9658 30.3874 29.7067 30.9694 29.1198C30.9929 29.399 30.5653 29.7373 30.3749 29.9098C30.3065 29.9715 30.1964 30.0303 30.1015 30.0166L30.1071 29.9666C30.0478 30.0178 30.0116 30.0487 29.9792 30.1237C29.9175 30.1557 29.5456 30.3803 29.5194 30.3832L29.394 30.3905Z" fill="#2CB8DF"/>
<path d="M33.1582 34.4238C33.2629 34.289 34.2127 34.1463 34.1592 33.9676C34.0939 33.9998 34.0918 34.0541 34.0064 34.0461C33.8912 34.0355 33.8469 33.9437 33.8551 33.8381C33.8938 33.773 33.8984 33.7855 33.9752 33.764L34.0178 33.6787L34.058 33.6683C34.1098 33.6812 34.149 33.7152 34.1811 33.758C34.2189 33.8086 34.301 33.7183 34.3857 33.7521C34.3563 33.8078 34.3479 33.8121 34.3504 33.8756C34.3633 33.8904 34.3762 33.9054 34.3891 33.9203C34.5023 33.9121 34.6686 33.748 34.7857 33.7633C34.4893 33.9722 33.5264 34.3388 33.1582 34.4238Z" fill="#12E7F9"/>
<path d="M25.6943 31.8752C26.1486 31.7701 26.4691 31.7047 26.9244 31.5637L26.8812 31.6377C26.7113 31.7162 26.7523 31.8863 26.3738 31.8576C26.1836 31.843 25.9023 31.9002 25.6943 31.8752Z" fill="#2CB8DF"/>
<path d="M29.5197 30.3832C29.5459 30.3803 29.9178 30.1557 29.9795 30.1237C29.9209 30.3225 29.5777 30.4733 29.4145 30.5979C29.3744 30.6285 29.2953 30.6535 29.2438 30.6621L29.2107 30.6475C29.2281 30.6239 29.2422 30.6063 29.2572 30.5811C29.0992 30.6815 29.0646 30.7563 28.8965 30.7705C29.0828 30.6408 29.3236 30.499 29.5197 30.3832Z" fill="#12E7F9"/>
<path d="M38.8575 26.5662C38.9038 27.0176 38.9186 27.3533 38.8848 27.8086L38.8526 27.7145L38.8098 27.7096C38.7883 27.5094 38.7852 26.7326 38.8575 26.5662Z" fill="#2CB8DF"/>
<path d="M38.8097 27.7096L38.8524 27.7145L38.8847 27.8086C38.8657 28.1805 38.8591 28.4313 38.7874 28.7955C38.7644 28.7164 38.7702 28.6237 38.7696 28.5397C38.7442 28.6248 38.7349 28.6912 38.6999 28.7746L38.6792 28.7354C38.7562 28.3985 38.7999 28.0549 38.8097 27.7096Z" fill="#087395"/>
<path d="M35.7025 32.623L35.7418 32.6432C35.7367 32.692 35.74 32.7047 35.7549 32.7518C35.7016 32.7422 35.7234 32.7555 35.6846 32.7186L35.7025 32.623Z" fill="#12E7F9"/>
<path d="M9.82422 30.8688C10.4171 31.151 11.0166 31.4192 11.6223 31.6729C11.9115 31.8362 12.5374 32.0895 12.871 32.2457C13.5445 32.5651 14.2103 32.9006 14.8679 33.2518C14.9611 33.3004 15.3531 33.492 15.4021 33.5528L15.4075 33.5797C15.247 33.5147 15.2471 33.4998 15.0882 33.5817C14 33.9352 12.7694 34.1196 11.6312 34.2065C11.5075 34.1295 11.1042 34.1498 10.9393 34.149C10.7488 33.9387 10.1231 32.1358 10.0087 31.7733C9.96371 31.6305 9.85408 31.0475 9.82422 30.8688Z" fill="#5B4AC2"/>
<path d="M38.7694 28.5397C38.77 28.6237 38.7642 28.7164 38.7872 28.7955C38.778 29.0594 38.6604 29.5578 38.5921 29.8115C38.1071 31.6098 37.0302 33.3625 35.7659 34.7194C35.5978 34.8998 35.379 35.1582 35.2011 35.3209C34.2116 36.2256 32.8331 37.3354 31.6368 37.9231C31.711 37.7608 31.8132 37.7739 31.9392 37.684C32.1841 37.5026 32.5212 37.3744 32.7661 37.2098C33.3882 36.7912 33.9907 36.3311 34.5583 35.842C34.6751 35.7412 34.7851 35.6541 34.9028 35.5457C35.4837 35.0106 36.0302 34.4131 36.5075 33.7832C36.5874 33.6783 36.6753 33.608 36.7302 33.4887L36.7177 33.477L36.6185 33.5438C36.5907 33.5153 36.6003 33.493 36.5972 33.4401L36.5794 33.4295C36.5427 33.4692 36.5212 33.5035 36.4911 33.5479L36.4808 33.5211C36.4216 33.5953 36.4124 33.7114 36.3737 33.7479C36.3446 33.7754 36.2222 33.8383 36.1614 33.899L36.1433 33.8852L36.13 33.9211L36.1136 33.9223C36.0993 33.8557 36.1081 33.8373 36.0677 33.7996C35.9981 33.8783 35.9778 33.9129 35.8813 33.9561L35.8126 33.9192C35.7397 33.9608 35.7429 34.0658 35.662 34.1278L35.6136 34.0858C35.5556 34.1756 34.6292 34.7418 34.4452 34.7957C34.3272 34.8303 34.0069 34.9469 33.8784 34.8795C33.844 34.8614 33.8065 34.8455 33.7608 34.8627C33.5435 34.9436 33.3079 34.8621 33.0843 34.8364C33.0532 34.8328 32.9478 34.791 32.9304 34.7914C32.8167 34.7928 32.7497 34.8364 32.6269 34.8309C32.4778 34.7213 32.5106 34.8131 32.2872 34.852C32.0212 34.8983 31.6802 34.8764 31.4372 34.9344C31.1692 34.9985 31.0755 34.9104 30.8212 34.9096C30.7105 34.9094 30.6065 34.9227 30.4792 34.9203L30.4636 34.9026C30.5321 34.8692 30.6528 34.8686 30.7335 34.8627C30.7368 34.8635 30.373 34.8549 30.3815 34.853L30.3677 34.9022L30.3448 34.9104C30.3132 34.8973 30.1286 34.8158 30.1151 34.8129C29.9286 34.7711 29.7573 34.8307 29.5903 34.7281C29.5087 34.6781 29.2442 34.6758 29.0774 34.6367C28.3247 34.4608 27.6433 34.3063 26.9282 33.9948L26.9315 33.9678C27.3364 34.1016 27.697 34.2571 28.1165 34.3709C29.5345 34.7557 30.8815 34.878 32.3354 34.6211C32.5528 34.5826 32.9569 34.4981 33.1579 34.4239C33.5261 34.3389 34.489 33.9723 34.7854 33.7633C34.8265 33.7432 34.8571 33.7244 34.8962 33.7016C35.1571 33.5811 35.9397 33.0649 36.1349 32.8469C36.3497 32.7194 36.7097 32.344 36.8755 32.1524C37.736 31.1703 38.3538 30 38.679 28.7354L38.6997 28.7746C38.7347 28.6912 38.744 28.6248 38.7694 28.5397Z" fill="url(#paint2_linear_5360_697)"/>
<path d="M7.58927 9.46347C7.62499 9.46683 7.65249 9.46999 7.68523 9.45093C8.6419 8.89407 9.63913 8.40519 10.6433 7.94019C10.9897 7.77978 11.3355 7.58386 11.7165 7.52374C12.2072 7.76462 12.7347 8.12163 13.1708 8.4546C13.2733 8.53286 13.5229 8.77372 13.6161 8.77919C14.0406 9.13583 14.4083 9.43911 14.8137 9.819C15.2077 10.1881 15.6382 10.6506 16.0569 10.9659C15.7582 11.0717 15.4648 11.133 15.1643 11.2259C14.6724 11.382 14.1924 11.5736 13.7282 11.7991C13.2418 12.0371 12.7698 12.3403 12.3068 12.6205C12.2143 12.6766 12.1175 12.7235 12.0181 12.7659L12.0116 12.7912L12.0712 12.8127C11.7035 12.968 11.234 13.3162 10.8845 13.5247C9.98405 14.0618 8.35315 15.0804 7.80163 15.9544C6.21481 19.2078 8.40118 22.8635 11.1477 24.6596C11.6636 24.9969 12.221 25.2522 12.7618 25.5402C13.483 25.9242 14.3656 26.184 15.0607 26.5918C14.8306 26.5688 14.5593 26.3592 14.3414 26.276C14.251 26.2414 14.183 26.2553 14.0929 26.2309C13.9373 26.1735 13.7834 26.1137 13.6267 26.0592C13.4659 26.0033 13.2782 25.9758 13.1249 25.9217C12.8465 25.8233 12.6856 25.6563 12.3891 25.6006C12.1735 25.56 12.0482 25.359 11.8652 25.6156L11.8214 25.6279C11.7923 25.5883 11.7886 25.5752 11.7684 25.5297C11.6324 25.5258 11.6477 25.6449 11.5036 25.632C11.5008 25.5949 11.4989 25.6145 11.5125 25.5738L11.4567 25.5639C11.3904 25.6658 11.4962 25.6346 11.3994 25.6875C11.3337 25.674 11.2996 25.6401 11.2455 25.5998C11.1927 25.5979 11.2161 25.5901 11.175 25.6233C11.2061 25.6949 11.2682 25.6633 11.2409 25.7313C11.2138 25.7986 11.1214 25.8996 11.0722 25.9553L11.0536 25.9459C11.0776 25.8694 11.1163 25.8459 11.1343 25.7561L11.1135 25.7574C11.0583 25.8221 10.8821 26.0217 10.8504 26.083C10.7829 26.2133 10.3285 26.451 10.346 26.5793C10.3855 26.5623 10.3907 26.5576 10.4261 26.5326C10.4043 26.6901 10.2417 26.8342 10.2683 26.9563C10.3302 26.9428 10.3088 26.9488 10.3653 26.9125C10.3864 27.0383 10.2059 27.3361 10.1939 27.5076C10.1186 27.6399 10.3363 27.7822 10.3337 27.7928C10.3281 27.816 10.2137 28.3529 10.206 28.3828C10.1572 28.5563 10.1934 28.7953 10.0808 28.9358C9.93021 29.1235 10.0172 29.401 10.1004 29.6002C10.1809 29.7928 9.99946 30.3481 10.1266 30.458C10.1259 30.5619 10.0607 30.7615 9.99079 30.8434C9.97521 30.8615 9.94265 30.8588 9.91232 30.8625C10.1811 30.9902 11.5171 31.5574 11.6221 31.6729C11.0165 31.4192 10.4169 31.151 9.82405 30.8688C9.85392 31.0475 9.96355 31.6305 10.0086 31.7733C10.1229 32.1358 10.7486 33.9387 10.9392 34.149C11.104 34.1498 11.5074 34.1295 11.631 34.2065C11.2068 34.2746 10.0261 34.2736 9.60659 34.2016C6.46433 34.001 3.66278 32.4969 2.14476 29.6883C1.16314 27.8721 0.651782 25.8256 0.393213 23.7824C0.2255 22.457 0.26853 21.0233 0.390598 19.6934C0.803106 16.5816 2.11751 13.6662 4.52724 11.5947C5.52702 10.7353 6.47175 10.1032 7.58927 9.46347Z" fill="url(#paint3_linear_5360_697)"/>
<path d="M9.82433 30.8688C9.62113 30.7356 9.35609 30.5524 9.15363 30.436C8.42992 30.0369 7.82137 29.6713 7.27312 29.0352C5.60394 27.0983 5.29783 24.4582 5.46277 21.9928C5.58488 20.1672 6.10648 18.3069 7.13844 16.7713C7.2743 16.5691 7.58238 16.0951 7.76558 15.9404L7.80191 15.9544C6.2151 19.2078 8.40146 22.8635 11.148 24.6596C11.6639 24.9969 12.2213 25.2522 12.7621 25.5403C13.4833 25.9242 14.3659 26.184 15.061 26.5918C14.8309 26.5688 14.5596 26.3592 14.3417 26.276C14.2513 26.2414 14.1833 26.2553 14.0932 26.2309C13.9376 26.1735 13.7837 26.1137 13.627 26.0592C13.4662 26.0033 13.2785 25.9758 13.1252 25.9217C12.8468 25.8233 12.6859 25.6563 12.3894 25.6006C12.1738 25.56 12.0485 25.359 11.8655 25.6156L11.8217 25.6279C11.7926 25.5883 11.7889 25.5752 11.7687 25.5297C11.6327 25.5258 11.6479 25.6449 11.5039 25.6321C11.5011 25.5949 11.4992 25.6145 11.5128 25.5738L11.457 25.5639C11.3907 25.6658 11.4965 25.6346 11.3997 25.6875C11.334 25.674 11.2999 25.6401 11.2457 25.5998C11.1929 25.5979 11.2164 25.5901 11.1753 25.6233C11.2064 25.6949 11.2685 25.6633 11.2412 25.7313C11.2141 25.7987 11.1217 25.8996 11.0725 25.9553L11.0539 25.9459C11.0778 25.8694 11.1166 25.8459 11.1346 25.7561L11.1138 25.7574C11.0586 25.8221 10.8824 26.0217 10.8507 26.083C10.7831 26.2133 10.3288 26.451 10.3463 26.5793C10.3857 26.5623 10.391 26.5576 10.4264 26.5326C10.4046 26.6901 10.242 26.8342 10.2685 26.9563C10.3305 26.9428 10.3091 26.9488 10.3656 26.9125C10.3867 27.0383 10.2062 27.3362 10.1942 27.5076C10.1189 27.6399 10.3366 27.7822 10.334 27.7928C10.3284 27.816 10.2139 28.3529 10.2062 28.3828C10.1575 28.5563 10.1937 28.7953 10.0811 28.9358C9.93049 29.1235 10.0175 29.401 10.1007 29.6002C10.1812 29.7928 9.99974 30.3481 10.1269 30.458C10.1261 30.5619 10.061 30.7615 9.99107 30.8434C9.97549 30.8615 9.94293 30.8588 9.9126 30.8625C10.1813 30.9903 11.5174 31.5574 11.6224 31.6729C11.0168 31.4192 10.4172 31.151 9.82433 30.8688Z" fill="url(#paint4_linear_5360_697)"/>
<path d="M9.93622 29.1273C9.98335 29.1951 9.98724 29.3775 9.97751 29.4588C9.89868 29.3353 9.92259 29.2754 9.93622 29.1273Z" fill="#3F7AF6"/>
<path d="M10.939 34.149C11.1039 34.1498 11.5072 34.1295 11.6309 34.2064C11.2066 34.2746 10.026 34.2736 9.60645 34.2016C9.79449 34.1654 10.6832 34.1607 10.939 34.149Z" fill="#5739AF"/>
<path d="M10.6241 7.88446C10.6094 7.85462 10.596 7.82413 10.5841 7.79307C10.5217 7.62913 10.4765 7.351 10.4538 7.17842C10.3267 6.23542 10.4629 5.27561 10.8471 4.4051C12.1007 1.51774 15.9868 0.553478 18.829 0.631605C19.1089 0.62645 19.4135 0.642107 19.691 0.641822C22.5705 0.638872 25.5307 1.59009 27.6297 3.61784C28.1983 4.16723 29.1555 4.71548 29.8951 5.03626C30.6287 5.26903 31.0137 5.33395 31.7774 5.22145C32.027 5.18468 32.6207 5.22862 32.8824 5.2726C32.8197 5.2894 32.7801 5.29887 32.7162 5.30958L32.7024 5.3293C32.718 5.3412 32.9268 5.44196 33.0281 5.51335C33.6488 5.95036 33.9733 6.54046 34.0795 7.28778C34.1324 7.65923 34.1387 8.54991 33.9797 8.90134C33.9065 8.78925 33.651 8.71243 33.5229 8.66094C32.2604 8.15335 30.8383 8.76593 29.5797 8.9887C28.0279 9.26335 26.4463 9.07841 25.0201 8.40426C24.5094 8.16221 23.926 7.74624 23.459 7.4288C23.2557 7.3176 23.0401 7.14997 22.8295 7.0311C22.3301 6.74899 21.6479 6.46548 21.0879 6.31864C19.308 5.85186 17.1857 5.68841 15.4108 6.25608C15.1007 6.35528 14.8254 6.5146 14.5491 6.67511C13.7028 6.87245 12.8639 7.02182 12.0462 7.31745C11.9106 7.36647 11.7072 7.40233 11.5922 7.4746L11.586 7.48706L11.6178 7.48829C11.6554 7.48991 11.7554 7.49327 11.7947 7.5143C12.4337 7.85645 13.053 8.26438 13.5956 8.74651C13.6024 8.75741 13.6093 8.76831 13.6162 8.77921C13.5229 8.77374 13.2734 8.53288 13.1709 8.45462C12.7348 8.12165 12.2073 7.76464 11.7165 7.52376C11.3355 7.58387 10.9897 7.77979 10.6433 7.9402C9.63922 8.4052 8.64199 8.89409 7.68531 9.45094C7.65258 9.47001 7.62508 9.46684 7.58936 9.46348C7.72537 9.37085 7.98686 9.23315 8.13656 9.147C8.93891 8.68534 9.80449 8.31583 10.6241 7.88446Z" fill="url(#paint5_linear_5360_697)"/>
<path d="M29.8951 5.03625C30.6287 5.26903 31.0137 5.33395 31.7773 5.22145C32.027 5.18467 32.6207 5.22862 32.8824 5.2726C32.8197 5.2894 32.7801 5.29887 32.7162 5.30957L32.7023 5.3293C32.718 5.3412 32.9268 5.44196 33.0281 5.51334C33.6488 5.95036 33.9732 6.54045 34.0795 7.28778C34.1324 7.65922 34.1387 8.54991 33.9797 8.90133C33.9064 8.78924 33.651 8.71243 33.5229 8.66094C32.2604 8.15334 30.8383 8.76592 29.5797 8.9887C28.0279 9.26334 26.4463 9.0784 25.0201 8.40426C24.5094 8.16221 23.926 7.74623 23.459 7.42879C23.5375 7.42618 23.7115 7.50854 23.8225 7.53735C24.6775 7.75918 25.4416 7.94403 26.3369 7.84819C27.0312 7.77389 27.8418 7.49247 28.3637 7.02102C28.9529 6.48883 29.4107 5.90098 30.1773 5.58995C30.2986 5.54075 30.4703 5.4444 30.5883 5.3962C30.6426 5.37403 30.7588 5.38262 30.8236 5.31518C30.5631 5.2227 30.1045 5.22508 29.8951 5.03625Z" fill="#5739AF"/>
<path d="M13.6161 8.77915C13.6093 8.76825 13.6024 8.75735 13.5955 8.74646C13.053 8.26433 12.4337 7.8564 11.7946 7.51425C11.7553 7.49321 11.6553 7.48985 11.6178 7.48823L11.5859 7.487L11.5922 7.47454C11.7072 7.40228 11.9106 7.36642 12.0462 7.31739C12.8638 7.02177 13.7027 6.87239 14.549 6.67505C14.5899 6.71663 14.6079 6.72313 14.6849 6.71786C15.1125 6.6886 15.5344 6.6629 15.9638 6.68169C17.8353 6.74503 19.6228 7.47358 21.0054 8.73647C21.6671 9.33972 22.1937 10.0145 22.6798 10.7592C23.7476 12.3949 24.4046 14.289 25.6041 15.8423C25.8896 16.2119 26.5002 16.8438 26.9 17.0876C26.805 17.1844 26.6334 17.2868 26.5168 17.3865C26.1576 17.6931 25.8023 18.0043 25.4511 18.32C24.5136 19.1606 23.6078 20.0359 22.7355 20.9441C22.6236 20.8045 22.366 20.6277 22.2236 20.4869C19.9599 18.2467 19.2391 14.6212 16.244 13.1093C14.985 12.4738 13.4117 12.3764 12.0712 12.8126L12.0116 12.7911L12.0181 12.7658C12.1175 12.7235 12.2143 12.6765 12.3069 12.6205C12.7698 12.3403 13.2418 12.0371 13.7282 11.7991C14.1924 11.5736 14.6724 11.382 15.1643 11.2258C15.4648 11.1329 15.7582 11.0717 16.0569 10.9658C15.6382 10.6506 15.2077 10.1881 14.8138 9.81895C14.4083 9.43907 14.0406 9.13579 13.6161 8.77915Z" fill="#5B4AC2"/>
</g>
<defs>
<linearGradient id="paint0_linear_5360_697" x1="23.3695" y1="11.7413" x2="31.6371" y2="23.6727" gradientUnits="userSpaceOnUse">
<stop stop-color="#5255F7"/>
<stop offset="1" stop-color="#5471F8"/>
</linearGradient>
<linearGradient id="paint1_linear_5360_697" x1="29.493" y1="24.2867" x2="33.2324" y2="34.3814" gradientUnits="userSpaceOnUse">
<stop stop-color="#25A3F7"/>
<stop offset="1" stop-color="#00F7FE"/>
</linearGradient>
<linearGradient id="paint2_linear_5360_697" x1="34.6944" y1="27.9614" x2="33.6858" y2="35.342" gradientUnits="userSpaceOnUse">
<stop stop-color="#1584A9"/>
<stop offset="1" stop-color="#059CBC"/>
</linearGradient>
<linearGradient id="paint3_linear_5360_697" x1="15.0634" y1="31.8957" x2="4.31816" y2="11.1317" gradientUnits="userSpaceOnUse">
<stop stop-color="#514AC4"/>
<stop offset="1" stop-color="#BA5AFB"/>
</linearGradient>
<linearGradient id="paint4_linear_5360_697" x1="5.20541" y1="22.6391" x2="13.8642" y2="24.4922" gradientUnits="userSpaceOnUse">
<stop stop-color="#1953B0"/>
<stop offset="1" stop-color="#4575E8"/>
</linearGradient>
<linearGradient id="paint5_linear_5360_697" x1="21.2649" y1="8.98497" x2="19.2632" y2="0.192762" gradientUnits="userSpaceOnUse">
<stop stop-color="#8D50DF"/>
<stop offset="1" stop-color="#B359F8"/>
</linearGradient>
<clipPath id="clip0_5360_697">
<rect width="40" height="40" fill="white"/>
</clipPath>
</defs>
</svg>
